<svg width="49" height="49" viewBox="0 0 49 49" fill="none" xmlns="http://www.w3.org/2000/svg">
<g clip-path="url(#clip0_880_215)">
<path d="M42.875 30.625H49V49H24.5V30.625H30.625V24.5H42.875V30.625ZM33.6875 27.5625V30.625H39.8125V27.5625H33.6875ZM45.9375 45.9375V39.8125H42.875V42.875H39.8125V39.8125H33.6875V42.875H30.625V39.8125H27.5625V45.9375H45.9375ZM45.9375 36.75V33.6875H27.5625V36.75H45.9375ZM27.5625 24.5V27.5625H21.4375V33.6875H15.3125V30.625H18.375V27.5625H12.25V33.6875H0V15.3125H3.0625V3.0625H39.8125V21.4375H36.75V6.125H6.125V15.3125H12.25V24.5H27.5625ZM9.1875 30.625V18.375H3.0625V30.625H9.1875Z" fill="black"/>
</g>
<defs>
<clipPath id="clip0_880_215">
<rect width="49" height="49" fill="white"/>
</clipPath>
</defs>
</svg>
