<svg width="47" height="47" viewBox="0 0 47 47" fill="none" xmlns="http://www.w3.org/2000/svg">
<g clip-path="url(#clip0_741_1521)">
<path d="M0 0.588867V46.4109H47V0.588867H0ZM1.95784 2.54671H45.0407V44.4516H1.95784V2.54671ZM16.3017 26.5373L14.7492 32.4049C14.7183 32.5738 14.6567 32.6032 14.4657 32.6032H11.5899C11.3916 32.6032 11.3608 32.5415 11.3916 32.3197L16.9523 12.8441C17.0522 12.4916 17.1124 12.1788 17.1432 11.2065C17.1432 11.0757 17.2123 11.0155 17.3122 11.0155H21.4129C21.5436 11.0155 21.6112 11.0464 21.642 11.2065L27.8769 32.3506C27.9151 32.5107 27.8769 32.6032 27.7168 32.6032H24.4885C24.3196 32.6032 24.2285 32.565 24.1977 32.4343L22.5762 26.5358H16.2958L16.3017 26.5373ZM21.7639 23.3545C21.2132 21.1896 19.9207 16.447 19.4389 14.1513H19.4007C18.988 16.4381 17.9467 20.3171 17.1447 23.3545H21.7639ZM30.5764 12.4696C30.5764 11.2079 31.4489 10.4647 32.5813 10.4647C33.7754 10.4647 34.5861 11.2755 34.5861 12.4696C34.5861 13.7621 33.7445 14.4744 32.5431 14.4744C31.3725 14.4744 30.5691 13.7636 30.5691 12.4696H30.5764ZM30.7982 16.9214C30.7982 16.7686 30.8599 16.7069 31.02 16.7069H34.0956C34.2718 16.7069 34.332 16.7686 34.332 16.9361V32.3961C34.332 32.5562 34.3012 32.6179 34.1029 32.6179H31.0729C30.8746 32.6179 30.8129 32.5254 30.8129 32.3653V16.9199L30.7982 16.9214Z" fill="black"/>
</g>
<defs>
<clipPath id="clip0_741_1521">
<rect width="47" height="47" fill="white"/>
</clipPath>
</defs>
</svg>
