<svg width="39" height="39" viewBox="0 0 39 39" fill="none" xmlns="http://www.w3.org/2000/svg">
<g clip-path="url(#clip0_741_1531)">
<path d="M1.39282 23.679H6.96425C8.81129 23.679 10.5827 24.4127 11.8887 25.7188C13.1948 27.0248 13.9285 28.7962 13.9285 30.6433M5.57139 30.6433H19.5C20.9776 30.6433 22.3947 31.2303 23.4396 32.2751C24.4844 33.32 25.0714 34.7371 25.0714 36.2147C25.0714 36.5841 24.9246 36.9384 24.6634 37.1996C24.4022 37.4608 24.0479 37.6076 23.6785 37.6076H1.39282M24.375 23.679L13.2321 13.3719C7.15925 7.27114 16.0178 -4.54029 24.375 5.01471C32.7321 -4.51243 41.6742 7.299 35.5178 13.3719L24.375 23.679Z" stroke="black" stroke-width="3" stroke-linecap="round" stroke-linejoin="round"/>
</g>
<defs>
<clipPath id="clip0_741_1531">
<rect width="39" height="39" fill="white"/>
</clipPath>
</defs>
</svg>
