<svg width="1727" height="956" viewBox="0 0 1727 956" fill="none" xmlns="http://www.w3.org/2000/svg">
<g clip-path="url(#clip0_786_218)">
<path d="M0.5 844.501V225.609C45.9215 221.437 92.862 238.895 124.505 271.758C156.148 304.621 165.541 351.198 159.636 396.426C199.666 393.709 240.573 411.51 265.862 442.682C291.15 473.833 299.858 518.741 288.968 557.359C305.185 563.457 318.536 576.807 324.655 593.025C330.774 609.242 328.998 630.894 320.847 646.212C351.484 641.484 384.069 651.54 406.683 672.721C429.319 693.902 444.595 728.412 441.878 759.285C478.228 748.117 521.424 768.442 535.973 803.572C546.606 798.908 559.357 803.144 566.781 812.087C574.184 821.009 574.847 834.916 568.301 844.501H0.5Z" fill="url(#paint0_linear_786_218)"/>
<path d="M1727.48 844.49V225.62C1682.06 221.449 1635.12 238.906 1603.48 271.768C1571.84 304.629 1562.44 351.204 1568.35 396.431C1528.32 393.714 1487.41 411.514 1462.13 442.686C1436.84 473.836 1428.13 518.742 1439.02 557.358C1422.8 563.456 1409.45 576.806 1403.34 593.022C1397.22 609.239 1398.99 630.89 1407.14 646.208C1376.51 641.48 1343.92 651.536 1321.31 672.716C1298.68 693.896 1283.4 728.405 1286.12 759.277C1249.77 748.109 1206.57 768.433 1192.03 803.562C1181.39 798.899 1168.64 803.135 1161.22 812.077C1153.82 820.999 1153.15 834.905 1159.7 844.49H1727.5H1727.48Z" fill="url(#paint1_linear_786_218)"/>
<path d="M825.338 852H-12.5V447.995C23.438 441.578 61.977 450.847 90.8812 472.862C119.785 494.877 137.788 530.151 140.525 566.048C160.382 560.767 182.411 563.864 199.962 574.426C217.535 584.988 231.919 604.463 236.239 624.272C251.664 621.621 268.129 625.453 280.704 634.634C293.279 643.814 301.375 657.718 303.275 673.049C318.655 661.217 338.874 655.691 358.234 657.986C377.594 660.303 395.597 672.38 407.651 687.488C417.625 678.82 431.444 674.586 444.652 676.146C457.861 677.706 470.345 685.349 477.967 696.089C480.998 682.229 490.791 669.951 503.75 663.757C516.709 657.562 534.215 657.874 547.152 664.113C559.342 649.942 577.548 640.962 596.366 639.848C615.183 638.711 636.601 646.243 650.442 658.833C659.421 646.377 677.198 642.722 692.238 646.443C689.954 630.445 695.811 614.156 704.949 600.742C714.086 587.328 726.299 576.298 738.331 565.29C746.609 557.714 754.954 549.982 760.88 540.534C766.805 531.064 770.175 519.522 767.552 508.693H790.643C786.098 520.302 791.299 533.471 798.22 543.854C805.141 554.238 814.798 562.55 823.212 571.819C854.084 605.845 867.427 652.616 868.445 698.228C869.599 750.414 852.455 807.145 825.292 851.955L825.338 852Z" fill="url(#paint2_linear_786_218)"/>
<path d="M901.376 851.669H1727.36V447.406C1691.93 440.984 1653.94 450.26 1625.44 472.289C1596.95 494.318 1579.2 529.614 1576.5 565.534C1556.92 560.25 1535.21 563.349 1517.9 573.918C1500.58 584.486 1486.4 603.974 1482.14 623.796C1466.93 621.142 1450.7 624.977 1438.3 634.164C1425.91 643.35 1417.93 657.263 1416.05 672.603C1400.89 660.764 1380.96 655.234 1361.87 657.531C1342.79 659.849 1325.04 671.934 1313.15 687.051C1303.32 678.378 1289.7 674.142 1276.68 675.702C1263.65 677.263 1251.35 684.911 1243.83 695.658C1240.84 681.789 1231.19 669.504 1218.41 663.305C1205.64 657.107 1188.38 657.419 1175.63 663.662C1163.61 649.481 1145.66 640.496 1127.11 639.381C1108.56 638.244 1087.44 645.78 1073.8 658.378C1064.95 645.914 1047.42 642.257 1032.59 645.981C1034.84 629.972 1029.07 613.673 1020.06 600.25C1011.05 586.828 999.014 575.791 987.152 564.776C978.992 557.195 970.764 549.458 964.922 540.004C959.08 530.528 955.758 518.978 958.345 508.142H935.58C940.061 519.759 934.933 532.936 928.11 543.327C921.287 553.717 911.767 562.033 903.472 571.309C873.037 605.356 859.882 652.157 858.879 697.799C857.742 750.018 874.643 806.785 901.421 851.624L901.376 851.669Z" fill="white"/>
<g style="mix-blend-mode:screen">
<path d="M1247.07 637.719C1250.49 637.719 1253.27 634.941 1253.27 631.515C1253.27 628.088 1250.49 625.31 1247.07 625.31C1243.64 625.31 1240.86 628.088 1240.86 631.515C1240.86 634.941 1243.64 637.719 1247.07 637.719Z" fill="#FFE02E"/>
<path d="M1020.13 566.474C1022.06 566.474 1023.62 564.912 1023.62 562.986C1023.62 561.06 1022.06 559.499 1020.13 559.499C1018.2 559.499 1016.64 561.06 1016.64 562.986C1016.64 564.912 1018.2 566.474 1020.13 566.474Z" fill="#FFE02E"/>
<path d="M1069.85 611.061C1069.85 613.757 1067.67 615.96 1064.95 615.96C1062.24 615.96 1060.05 613.778 1060.05 611.061C1060.05 608.344 1062.24 606.162 1064.95 606.162C1067.67 606.162 1069.85 608.344 1069.85 611.061Z" fill="#FFE02E"/>
<path d="M996.403 531.108C997.868 531.108 999.056 529.92 999.056 528.455C999.056 526.99 997.868 525.802 996.403 525.802C994.938 525.802 993.75 526.99 993.75 528.455C993.75 529.92 994.938 531.108 996.403 531.108Z" fill="#FFE02E"/>
<path d="M1275.24 556.14C1275.24 556.953 1274.58 557.617 1273.77 557.617C1272.96 557.617 1272.29 556.953 1272.29 556.14C1272.29 555.327 1272.96 554.664 1273.77 554.664C1274.58 554.664 1275.24 555.327 1275.24 556.14Z" fill="#FFE02E"/>
<path d="M1008.39 538.596C1009.34 538.596 1010.12 537.82 1010.12 536.863C1010.12 535.906 1009.34 535.13 1008.39 535.13C1007.43 535.13 1006.65 535.906 1006.65 536.863C1006.65 537.82 1007.43 538.596 1008.39 538.596Z" fill="#FFE02E"/>
<path d="M1073.62 544.587C1073.62 546.983 1071.67 548.909 1069.3 548.909C1066.92 548.909 1064.97 546.962 1064.97 544.587C1064.97 542.212 1066.92 540.265 1069.3 540.265C1071.67 540.265 1073.62 542.212 1073.62 544.587Z" fill="#FFE02E"/>
<path d="M1272.29 625.909C1272.29 627.941 1270.64 629.589 1268.61 629.589C1266.58 629.589 1264.93 627.941 1264.93 625.909C1264.93 623.876 1266.58 622.229 1268.61 622.229C1270.64 622.229 1272.29 623.876 1272.29 625.909Z" fill="#FFE02E"/>
<path d="M479.928 637.719C483.354 637.719 486.132 634.941 486.132 631.515C486.132 628.088 483.354 625.31 479.928 625.31C476.501 625.31 473.723 628.088 473.723 631.515C473.723 634.941 476.501 637.719 479.928 637.719Z" fill="#FFE02E"/>
<path d="M706.866 566.474C708.792 566.474 710.353 564.912 710.353 562.986C710.353 561.06 708.792 559.499 706.866 559.499C704.94 559.499 703.378 561.06 703.378 562.986C703.378 564.912 704.94 566.474 706.866 566.474Z" fill="#FFE02E"/>
<path d="M657.143 611.061C657.143 613.757 659.325 615.96 662.042 615.96C664.759 615.96 666.941 613.778 666.941 611.061C666.941 608.344 664.759 606.162 662.042 606.162C659.325 606.162 657.143 608.344 657.143 611.061Z" fill="#FFE02E"/>
<path d="M730.592 531.108C732.057 531.108 733.245 529.92 733.245 528.455C733.245 526.99 732.057 525.802 730.592 525.802C729.126 525.802 727.939 526.99 727.939 528.455C727.939 529.92 729.126 531.108 730.592 531.108Z" fill="#FFE02E"/>
<path d="M451.752 556.14C451.752 556.953 452.415 557.617 453.228 557.617C454.041 557.617 454.704 556.953 454.704 556.14C454.704 555.327 454.041 554.664 453.228 554.664C452.415 554.664 451.752 555.327 451.752 556.14Z" fill="#FFE02E"/>
<path d="M718.611 538.596C719.568 538.596 720.344 537.82 720.344 536.863C720.344 535.906 719.568 535.13 718.611 535.13C717.654 535.13 716.878 535.906 716.878 536.863C716.878 537.82 717.654 538.596 718.611 538.596Z" fill="#FFE02E"/>
<path d="M653.378 544.587C653.378 546.983 655.325 548.909 657.7 548.909C660.075 548.909 662.022 546.962 662.022 544.587C662.022 542.212 660.075 540.265 657.7 540.265C655.325 540.265 653.378 542.212 653.378 544.587Z" fill="#FFE02E"/>
<path d="M454.703 625.908C454.703 627.941 456.351 629.588 458.383 629.588C460.416 629.588 462.063 627.941 462.063 625.908C462.063 623.876 460.416 622.229 458.383 622.229C456.351 622.229 454.703 623.876 454.703 625.908Z" fill="#FFE02E"/>
</g>
<path d="M47.7336 642.147C62.4191 649.918 73.705 665.205 74.7688 681.786C104.602 669.391 139.246 669.067 169.288 680.908C199.353 692.749 226.665 719.599 240.033 749.016C258.349 744.09 280.088 755.908 286.24 773.831C304.787 758.197 331.314 752.647 354.579 759.469C377.845 766.315 398.035 788.077 405.181 811.25C409.043 805.792 415.542 802.3 422.225 802.069C428.909 801.837 435.245 803.133 439.478 808.313C457.748 779.89 487.628 759.145 520.653 751.976C553.678 744.807 588.992 757.642 617.415 775.912C622.41 762.383 644.311 759.122 655.25 777.624C658.974 764.511 668.109 753.017 680.042 746.426C691.976 739.835 705.99 737.638 719.08 741.477C716.235 727.647 721.67 713.239 729.903 701.791C738.137 690.343 749.006 681.07 758.927 671.033C784.853 644.761 812.813 606.116 823.844 571.333C838.414 525.427 842.854 477.485 846.832 429.543H880.528C884.483 477.485 888.923 525.403 903.516 571.333C914.547 606.116 942.508 644.761 968.433 671.033C978.354 681.07 989.224 690.32 997.457 701.791C1005.69 713.262 1011.12 727.67 1008.28 741.477C1021.37 737.638 1035.38 739.835 1047.32 746.426C1059.25 753.017 1068.39 764.511 1072.11 777.624C1083.05 759.122 1104.95 762.383 1109.95 775.912C1138.37 757.642 1173.68 744.784 1206.71 751.976C1239.73 759.145 1269.61 779.89 1287.88 808.313C1292.09 803.133 1298.45 801.837 1305.14 802.069C1311.82 802.3 1318.32 805.792 1322.18 811.25C1329.3 788.077 1349.52 766.315 1372.78 759.469C1396.05 752.624 1422.57 758.197 1441.12 773.831C1447.3 755.908 1469.03 744.09 1487.33 749.016C1500.69 719.622 1528.03 692.749 1558.07 680.908C1588.14 669.067 1622.78 669.391 1652.59 681.786C1653.66 665.205 1664.92 649.918 1679.63 642.147C1694.31 634.377 1713.02 634.793 1727.36 643.257V975.913H0V643.257C14.3155 634.816 33.025 634.377 47.7336 642.147Z" fill="white"/>
<path d="M944.223 525.31H925.267L927.877 503.23C927.941 502.61 928.476 502.118 929.118 502.118H959.306C959.948 502.118 960.483 502.588 960.547 503.23L963.157 525.31H944.201H944.223Z" fill="url(#paint3_linear_786_218)"/>
<path d="M963.029 518.142H925.417C924.732 518.142 924.219 517.522 924.326 516.859L924.604 515.254C924.689 514.719 925.16 514.355 925.695 514.355H962.73C963.265 514.355 963.714 514.741 963.821 515.254L964.099 516.859C964.227 517.522 963.692 518.142 963.008 518.142H963.029Z" fill="url(#paint4_linear_786_218)"/>
<path d="M961.895 510.119H926.551C925.866 510.119 925.352 509.499 925.459 508.836L925.738 507.231C925.823 506.718 926.294 506.333 926.829 506.333H961.596C962.13 506.333 962.58 506.718 962.687 507.231L962.965 508.836C963.093 509.499 962.558 510.119 961.874 510.119H961.895Z" fill="url(#paint5_linear_786_218)"/>
<path d="M911.767 443.282C913.564 458.9 900.449 494.929 900.449 494.929L889.067 503.337L890.029 508.151H919.961L917.971 453.209L911.809 443.303L911.767 443.282Z" fill="url(#paint6_linear_786_218)"/>
<path d="M976.679 443.282C974.882 458.9 987.997 494.929 987.997 494.929L999.379 503.337L998.416 508.151H968.485L970.475 453.209L976.636 443.303L976.679 443.282Z" fill="url(#paint7_linear_786_218)"/>
<path d="M900.384 266.281C901.39 165.447 944.223 129.054 944.223 129.054C944.223 129.054 987.055 165.447 988.061 266.281C989.066 367.116 968.506 508.151 968.506 508.151H919.918C919.918 508.151 899.357 367.116 900.363 266.281H900.384Z" fill="url(#paint8_linear_786_218)"/>
<path d="M933.589 503.358L938.809 496.148L944.222 445.186L949.635 496.148L954.855 503.358L955.776 508.129H944.222H932.669L933.589 503.358Z" fill="url(#paint9_linear_786_218)"/>
<g style="mix-blend-mode:multiply" opacity="0.4">
<g style="mix-blend-mode:multiply" opacity="0.4">
<path d="M965.532 209.135C965.532 209.841 964.955 210.419 964.249 210.419C963.543 210.419 962.965 209.841 962.965 209.135C962.965 208.429 963.543 207.852 964.249 207.852C964.955 207.852 965.532 208.429 965.532 209.135ZM964.249 216.196C963.543 216.196 962.965 216.773 962.965 217.479C962.965 218.185 963.543 218.763 964.249 218.763C964.955 218.763 965.532 218.185 965.532 217.479C965.532 216.773 964.955 216.196 964.249 216.196ZM964.249 224.54C963.543 224.54 962.965 225.117 962.965 225.823C962.965 226.529 963.543 227.107 964.249 227.107C964.955 227.107 965.532 226.529 965.532 225.823C965.532 225.117 964.955 224.54 964.249 224.54ZM964.249 232.884C963.543 232.884 962.965 233.461 962.965 234.167C962.965 234.873 963.543 235.451 964.249 235.451C964.955 235.451 965.532 234.873 965.532 234.167C965.532 233.461 964.955 232.884 964.249 232.884ZM964.249 241.228C963.543 241.228 962.965 241.805 962.965 242.511C962.965 243.217 963.543 243.795 964.249 243.795C964.955 243.795 965.532 243.217 965.532 242.511C965.532 241.805 964.955 241.228 964.249 241.228ZM964.249 249.572C963.543 249.572 962.965 250.149 962.965 250.855C962.965 251.561 963.543 252.139 964.249 252.139C964.955 252.139 965.532 251.561 965.532 250.855C965.532 250.149 964.955 249.572 964.249 249.572ZM964.249 257.916C963.543 257.916 962.965 258.493 962.965 259.199C962.965 259.905 963.543 260.483 964.249 260.483C964.955 260.483 965.532 259.905 965.532 259.199C965.532 258.493 964.955 257.916 964.249 257.916ZM964.249 266.26C963.543 266.26 962.965 266.837 962.965 267.543C962.965 268.25 963.543 268.827 964.249 268.827C964.955 268.827 965.532 268.25 965.532 267.543C965.532 266.837 964.955 266.26 964.249 266.26ZM964.249 274.604C963.543 274.604 962.965 275.181 962.965 275.887C962.965 276.594 963.543 277.171 964.249 277.171C964.955 277.171 965.532 276.594 965.532 275.887C965.532 275.181 964.955 274.604 964.249 274.604ZM964.249 282.948C963.543 282.948 962.965 283.525 962.965 284.232C962.965 284.938 963.543 285.515 964.249 285.515C964.955 285.515 965.532 284.938 965.532 284.232C965.532 283.525 964.955 282.948 964.249 282.948ZM964.249 291.292C963.543 291.292 962.965 291.87 962.965 292.576C962.965 293.282 963.543 293.859 964.249 293.859C964.955 293.859 965.532 293.282 965.532 292.576C965.532 291.87 964.955 291.292 964.249 291.292ZM964.249 299.636C963.543 299.636 962.965 300.214 962.965 300.92C962.965 301.626 963.543 302.203 964.249 302.203C964.955 302.203 965.532 301.626 965.532 300.92C965.532 300.214 964.955 299.636 964.249 299.636ZM964.249 307.98C963.543 307.98 962.965 308.558 962.965 309.264C962.965 309.97 963.543 310.547 964.249 310.547C964.955 310.547 965.532 309.97 965.532 309.264C965.532 308.558 964.955 307.98 964.249 307.98ZM964.249 316.324C963.543 316.324 962.965 316.902 962.965 317.608C962.965 318.314 963.543 318.891 964.249 318.891C964.955 318.891 965.532 318.314 965.532 317.608C965.532 316.902 964.955 316.324 964.249 316.324ZM964.249 324.668C963.543 324.668 962.965 325.246 962.965 325.952C962.965 326.658 963.543 327.235 964.249 327.235C964.955 327.235 965.532 326.658 965.532 325.952C965.532 325.246 964.955 324.668 964.249 324.668ZM964.249 333.012C963.543 333.012 962.965 333.59 962.965 334.296C962.965 335.002 963.543 335.579 964.249 335.579C964.955 335.579 965.532 335.002 965.532 334.296C965.532 333.59 964.955 333.012 964.249 333.012ZM964.249 341.356C963.543 341.356 962.965 341.934 962.965 342.64C962.965 343.346 963.543 343.923 964.249 343.923C964.955 343.923 965.532 343.346 965.532 342.64C965.532 341.934 964.955 341.356 964.249 341.356ZM964.249 349.7C963.543 349.7 962.965 350.278 962.965 350.984C962.965 351.69 963.543 352.267 964.249 352.267C964.955 352.267 965.532 351.69 965.532 350.984C965.532 350.278 964.955 349.7 964.249 349.7ZM964.249 358.044C963.543 358.044 962.965 358.622 962.965 359.328C962.965 360.034 963.543 360.611 964.249 360.611C964.955 360.611 965.532 360.034 965.532 359.328C965.532 358.622 964.955 358.044 964.249 358.044ZM964.249 366.388C963.543 366.388 962.965 366.966 962.965 367.672C962.965 368.378 963.543 368.956 964.249 368.956C964.955 368.956 965.532 368.378 965.532 367.672C965.532 366.966 964.955 366.388 964.249 366.388ZM964.249 374.732C963.543 374.732 962.965 375.31 962.965 376.016C962.965 376.722 963.543 377.3 964.249 377.3C964.955 377.3 965.532 376.722 965.532 376.016C965.532 375.31 964.955 374.732 964.249 374.732ZM964.249 383.076C963.543 383.076 962.965 383.654 962.965 384.36C962.965 385.066 963.543 385.644 964.249 385.644C964.955 385.644 965.532 385.066 965.532 384.36C965.532 383.654 964.955 383.076 964.249 383.076ZM964.249 391.42C963.543 391.42 962.965 391.998 962.965 392.704C962.965 393.41 963.543 393.988 964.249 393.988C964.955 393.988 965.532 393.41 965.532 392.704C965.532 391.998 964.955 391.42 964.249 391.42ZM964.249 399.764C963.543 399.764 962.965 400.342 962.965 401.048C962.965 401.754 963.543 402.332 964.249 402.332C964.955 402.332 965.532 401.754 965.532 401.048C965.532 400.342 964.955 399.764 964.249 399.764ZM964.249 408.108C963.543 408.108 962.965 408.686 962.965 409.392C962.965 410.098 963.543 410.676 964.249 410.676C964.955 410.676 965.532 410.098 965.532 409.392C965.532 408.686 964.955 408.108 964.249 408.108ZM964.249 416.452C963.543 416.452 962.965 417.03 962.965 417.736C962.965 418.442 963.543 419.02 964.249 419.02C964.955 419.02 965.532 418.442 965.532 417.736C965.532 417.03 964.955 416.452 964.249 416.452ZM964.249 424.796C963.543 424.796 962.965 425.374 962.965 426.08C962.965 426.786 963.543 427.364 964.249 427.364C964.955 427.364 965.532 426.786 965.532 426.08C965.532 425.374 964.955 424.796 964.249 424.796ZM964.249 433.14C963.543 433.14 962.965 433.718 962.965 434.424C962.965 435.13 963.543 435.708 964.249 435.708C964.955 435.708 965.532 435.13 965.532 434.424C965.532 433.718 964.955 433.14 964.249 433.14ZM964.249 441.484C963.543 441.484 962.965 442.062 962.965 442.768C962.965 443.474 963.543 444.052 964.249 444.052C964.955 444.052 965.532 443.474 965.532 442.768C965.532 442.062 964.955 441.484 964.249 441.484ZM964.249 449.828C963.543 449.828 962.965 450.406 962.965 451.112C962.965 451.818 963.543 452.396 964.249 452.396C964.955 452.396 965.532 451.818 965.532 451.112C965.532 450.406 964.955 449.828 964.249 449.828ZM964.249 458.172C963.543 458.172 962.965 458.75 962.965 459.456C962.965 460.162 963.543 460.74 964.249 460.74C964.955 460.74 965.532 460.162 965.532 459.456C965.532 458.75 964.955 458.172 964.249 458.172ZM964.249 466.516C963.543 466.516 962.965 467.094 962.965 467.8C962.965 468.506 963.543 469.084 964.249 469.084C964.955 469.084 965.532 468.506 965.532 467.8C965.532 467.094 964.955 466.516 964.249 466.516ZM964.249 474.86C963.543 474.86 962.965 475.438 962.965 476.144C962.965 476.85 963.543 477.428 964.249 477.428C964.955 477.428 965.532 476.85 965.532 476.144C965.532 475.438 964.955 474.86 964.249 474.86ZM964.249 483.205C963.543 483.205 962.965 483.782 962.965 484.488C962.965 485.194 963.543 485.772 964.249 485.772C964.955 485.772 965.532 485.194 965.532 484.488C965.532 483.782 964.955 483.205 964.249 483.205ZM964.249 491.549C963.543 491.549 962.965 492.126 962.965 492.832C962.965 493.538 963.543 494.116 964.249 494.116C964.955 494.116 965.532 493.538 965.532 492.832C965.532 492.126 964.955 491.549 964.249 491.549ZM964.249 499.893C963.543 499.893 962.965 500.47 962.965 501.176C962.965 501.882 963.543 502.46 964.249 502.46C964.955 502.46 965.532 501.882 965.532 501.176C965.532 500.47 964.955 499.893 964.249 499.893Z" fill="#CD2D2F"/>
</g>
</g>
<path d="M909.348 422.807H1004.47C1004.47 422.807 1009.63 389.794 991.12 366.474C972.613 343.153 919.832 301.69 924.325 238.425C928.818 175.16 863.499 422.807 863.499 422.807H909.348Z" fill="url(#paint10_linear_786_218)"/>
<path d="M782.775 525.31H801.731L799.121 503.23C799.057 502.61 798.522 502.118 797.88 502.118H767.692C767.05 502.118 766.515 502.588 766.451 503.23L763.841 525.31H782.797H782.775Z" fill="url(#paint11_linear_786_218)"/>
<path d="M763.968 518.142H801.58C802.265 518.142 802.779 517.522 802.672 516.859L802.394 515.254C802.308 514.719 801.837 514.355 801.302 514.355H764.268C763.733 514.355 763.284 514.741 763.177 515.254L762.898 516.859C762.77 517.522 763.305 518.142 763.99 518.142H763.968Z" fill="url(#paint12_linear_786_218)"/>
<path d="M765.102 510.119H800.446C801.131 510.119 801.645 509.499 801.538 508.836L801.259 507.231C801.174 506.718 800.703 506.333 800.168 506.333H765.401C764.867 506.333 764.417 506.718 764.31 507.231L764.032 508.836C763.904 509.499 764.439 510.119 765.123 510.119H765.102Z" fill="url(#paint13_linear_786_218)"/>
<path d="M815.232 443.282C813.435 458.9 826.55 494.929 826.55 494.929L837.932 503.337L836.969 508.151H807.037L809.027 453.209L815.189 443.303L815.232 443.282Z" fill="url(#paint14_linear_786_218)"/>
<path d="M750.319 443.282C752.116 458.9 739.001 494.929 739.001 494.929L727.619 503.337L728.582 508.151H758.513L756.524 453.209L750.362 443.303L750.319 443.282Z" fill="url(#paint15_linear_786_218)"/>
<path d="M826.613 266.281C825.608 165.447 782.775 129.054 782.775 129.054C782.775 129.054 739.942 165.447 738.937 266.281C737.931 367.116 758.492 508.151 758.492 508.151H807.08C807.08 508.151 827.64 367.116 826.635 266.281H826.613Z" fill="url(#paint16_linear_786_218)"/>
<g style="mix-blend-mode:multiply" opacity="0.2">
<path d="M745.592 204.985H819.961C819.682 203.723 819.383 202.503 819.105 201.284H746.469C746.169 202.503 745.891 203.744 745.613 204.985H745.592Z" fill="#5B0043"/>
</g>
<g style="mix-blend-mode:multiply" opacity="0.2">
<path d="M981.407 204.985H907.039C907.317 203.723 907.616 202.503 907.894 201.284H980.53C980.83 202.503 981.108 203.744 981.386 204.985H981.407Z" fill="#5B0043"/>
</g>
<path d="M793.408 503.358L788.188 496.148L782.775 445.186L777.362 496.148L772.141 503.358L771.221 508.129H782.775H794.328L793.408 503.358Z" fill="url(#paint17_linear_786_218)"/>
<g style="mix-blend-mode:multiply" opacity="0.4">
<g style="mix-blend-mode:multiply" opacity="0.4">
<path d="M764.162 209.136C764.162 209.842 763.585 210.419 762.879 210.419C762.173 210.419 761.595 209.842 761.595 209.136C761.595 208.43 762.173 207.852 762.879 207.852C763.585 207.852 764.162 208.43 764.162 209.136ZM762.879 216.196C762.173 216.196 761.595 216.774 761.595 217.48C761.595 218.186 762.173 218.763 762.879 218.763C763.585 218.763 764.162 218.186 764.162 217.48C764.162 216.774 763.585 216.196 762.879 216.196ZM762.879 224.54C762.173 224.54 761.595 225.118 761.595 225.824C761.595 226.53 762.173 227.108 762.879 227.108C763.585 227.108 764.162 226.53 764.162 225.824C764.162 225.118 763.585 224.54 762.879 224.54ZM762.879 232.884C762.173 232.884 761.595 233.462 761.595 234.168C761.595 234.874 762.173 235.452 762.879 235.452C763.585 235.452 764.162 234.874 764.162 234.168C764.162 233.462 763.585 232.884 762.879 232.884ZM762.879 241.228C762.173 241.228 761.595 241.806 761.595 242.512C761.595 243.218 762.173 243.796 762.879 243.796C763.585 243.796 764.162 243.218 764.162 242.512C764.162 241.806 763.585 241.228 762.879 241.228ZM762.879 249.572C762.173 249.572 761.595 250.15 761.595 250.856C761.595 251.562 762.173 252.14 762.879 252.14C763.585 252.14 764.162 251.562 764.162 250.856C764.162 250.15 763.585 249.572 762.879 249.572ZM762.879 257.916C762.173 257.916 761.595 258.494 761.595 259.2C761.595 259.906 762.173 260.484 762.879 260.484C763.585 260.484 764.162 259.906 764.162 259.2C764.162 258.494 763.585 257.916 762.879 257.916ZM762.879 266.26C762.173 266.26 761.595 266.838 761.595 267.544C761.595 268.25 762.173 268.828 762.879 268.828C763.585 268.828 764.162 268.25 764.162 267.544C764.162 266.838 763.585 266.26 762.879 266.26ZM762.879 274.604C762.173 274.604 761.595 275.182 761.595 275.888C761.595 276.594 762.173 277.172 762.879 277.172C763.585 277.172 764.162 276.594 764.162 275.888C764.162 275.182 763.585 274.604 762.879 274.604ZM762.879 282.948C762.173 282.948 761.595 283.526 761.595 284.232C761.595 284.938 762.173 285.516 762.879 285.516C763.585 285.516 764.162 284.938 764.162 284.232C764.162 283.526 763.585 282.948 762.879 282.948ZM762.879 291.292C762.173 291.292 761.595 291.87 761.595 292.576C761.595 293.282 762.173 293.86 762.879 293.86C763.585 293.86 764.162 293.282 764.162 292.576C764.162 291.87 763.585 291.292 762.879 291.292ZM762.879 299.636C762.173 299.636 761.595 300.214 761.595 300.92C761.595 301.626 762.173 302.204 762.879 302.204C763.585 302.204 764.162 301.626 764.162 300.92C764.162 300.214 763.585 299.636 762.879 299.636ZM762.879 307.98C762.173 307.98 761.595 308.558 761.595 309.264C761.595 309.97 762.173 310.548 762.879 310.548C763.585 310.548 764.162 309.97 764.162 309.264C764.162 308.558 763.585 307.98 762.879 307.98ZM762.879 316.324C762.173 316.324 761.595 316.902 761.595 317.608C761.595 318.314 762.173 318.892 762.879 318.892C763.585 318.892 764.162 318.314 764.162 317.608C764.162 316.902 763.585 316.324 762.879 316.324ZM762.879 324.668C762.173 324.668 761.595 325.246 761.595 325.952C761.595 326.658 762.173 327.236 762.879 327.236C763.585 327.236 764.162 326.658 764.162 325.952C764.162 325.246 763.585 324.668 762.879 324.668ZM762.879 333.012C762.173 333.012 761.595 333.59 761.595 334.296C761.595 335.002 762.173 335.58 762.879 335.58C763.585 335.58 764.162 335.002 764.162 334.296C764.162 333.59 763.585 333.012 762.879 333.012ZM762.879 341.357C762.173 341.357 761.595 341.934 761.595 342.64C761.595 343.346 762.173 343.924 762.879 343.924C763.585 343.924 764.162 343.346 764.162 342.64C764.162 341.934 763.585 341.357 762.879 341.357ZM762.879 349.701C762.173 349.701 761.595 350.278 761.595 350.984C761.595 351.69 762.173 352.268 762.879 352.268C763.585 352.268 764.162 351.69 764.162 350.984C764.162 350.278 763.585 349.701 762.879 349.701ZM762.879 358.045C762.173 358.045 761.595 358.622 761.595 359.328C761.595 360.034 762.173 360.612 762.879 360.612C763.585 360.612 764.162 360.034 764.162 359.328C764.162 358.622 763.585 358.045 762.879 358.045ZM762.879 366.389C762.173 366.389 761.595 366.966 761.595 367.672C761.595 368.378 762.173 368.956 762.879 368.956C763.585 368.956 764.162 368.378 764.162 367.672C764.162 366.966 763.585 366.389 762.879 366.389ZM762.879 374.733C762.173 374.733 761.595 375.31 761.595 376.016C761.595 376.722 762.173 377.3 762.879 377.3C763.585 377.3 764.162 376.722 764.162 376.016C764.162 375.31 763.585 374.733 762.879 374.733ZM762.879 383.077C762.173 383.077 761.595 383.654 761.595 384.36C761.595 385.066 762.173 385.644 762.879 385.644C763.585 385.644 764.162 385.066 764.162 384.36C764.162 383.654 763.585 383.077 762.879 383.077ZM762.879 391.421C762.173 391.421 761.595 391.998 761.595 392.704C761.595 393.41 762.173 393.988 762.879 393.988C763.585 393.988 764.162 393.41 764.162 392.704C764.162 391.998 763.585 391.421 762.879 391.421ZM762.879 399.765C762.173 399.765 761.595 400.342 761.595 401.048C761.595 401.754 762.173 402.332 762.879 402.332C763.585 402.332 764.162 401.754 764.162 401.048C764.162 400.342 763.585 399.765 762.879 399.765ZM762.879 408.109C762.173 408.109 761.595 408.686 761.595 409.392C761.595 410.098 762.173 410.676 762.879 410.676C763.585 410.676 764.162 410.098 764.162 409.392C764.162 408.686 763.585 408.109 762.879 408.109ZM762.879 416.453C762.173 416.453 761.595 417.03 761.595 417.736C761.595 418.443 762.173 419.02 762.879 419.02C763.585 419.02 764.162 418.443 764.162 417.736C764.162 417.03 763.585 416.453 762.879 416.453ZM762.879 424.797C762.173 424.797 761.595 425.374 761.595 426.08C761.595 426.787 762.173 427.364 762.879 427.364C763.585 427.364 764.162 426.787 764.162 426.08C764.162 425.374 763.585 424.797 762.879 424.797ZM762.879 433.141C762.173 433.141 761.595 433.719 761.595 434.425C761.595 435.131 762.173 435.708 762.879 435.708C763.585 435.708 764.162 435.131 764.162 434.425C764.162 433.719 763.585 433.141 762.879 433.141ZM762.879 441.485C762.173 441.485 761.595 442.063 761.595 442.769C761.595 443.475 762.173 444.052 762.879 444.052C763.585 444.052 764.162 443.475 764.162 442.769C764.162 442.063 763.585 441.485 762.879 441.485ZM762.879 449.829C762.173 449.829 761.595 450.407 761.595 451.113C761.595 451.819 762.173 452.396 762.879 452.396C763.585 452.396 764.162 451.819 764.162 451.113C764.162 450.407 763.585 449.829 762.879 449.829ZM762.879 458.173C762.173 458.173 761.595 458.751 761.595 459.457C761.595 460.163 762.173 460.74 762.879 460.74C763.585 460.74 764.162 460.163 764.162 459.457C764.162 458.751 763.585 458.173 762.879 458.173ZM762.879 466.517C762.173 466.517 761.595 467.095 761.595 467.801C761.595 468.507 762.173 469.084 762.879 469.084C763.585 469.084 764.162 468.507 764.162 467.801C764.162 467.095 763.585 466.517 762.879 466.517ZM762.879 474.861C762.173 474.861 761.595 475.439 761.595 476.145C761.595 476.851 762.173 477.428 762.879 477.428C763.585 477.428 764.162 476.851 764.162 476.145C764.162 475.439 763.585 474.861 762.879 474.861ZM762.879 483.205C762.173 483.205 761.595 483.783 761.595 484.489C761.595 485.195 762.173 485.772 762.879 485.772C763.585 485.772 764.162 485.195 764.162 484.489C764.162 483.783 763.585 483.205 762.879 483.205ZM762.879 491.549C762.173 491.549 761.595 492.127 761.595 492.833C761.595 493.539 762.173 494.116 762.879 494.116C763.585 494.116 764.162 493.539 764.162 492.833C764.162 492.127 763.585 491.549 762.879 491.549ZM762.879 499.893C762.173 499.893 761.595 500.471 761.595 501.177C761.595 501.883 762.173 502.46 762.879 502.46C763.585 502.46 764.162 501.883 764.162 501.177C764.162 500.471 763.585 499.893 762.879 499.893Z" fill="#CD2D2F"/>
</g>
</g>
<path d="M817.651 422.807H722.529C722.529 422.807 717.373 389.794 735.88 366.474C754.386 343.153 807.168 301.69 802.675 238.425C798.182 175.16 863.501 422.807 863.501 422.807H817.651Z" fill="url(#paint18_linear_786_218)"/>
<g style="mix-blend-mode:screen" opacity="0.3">
<path d="M815.66 400.107H911.338C911.488 398.524 911.616 396.94 911.766 395.314H815.232C815.382 396.919 815.51 398.524 815.66 400.107Z" fill="#FEB46F"/>
</g>
<path opacity="0.4" d="M816.088 404.899H910.91C911.06 403.316 911.188 401.733 911.338 400.107H815.66C815.81 401.733 815.938 403.316 816.088 404.899Z" fill="#5F0043"/>
<path d="M862.689 462.024H826.702L831.666 420.068C831.816 418.87 832.821 417.972 834.02 417.972H891.337C892.535 417.972 893.562 418.87 893.69 420.068L898.654 462.024H862.667H862.689Z" fill="url(#paint19_linear_786_218)"/>
<path d="M898.396 448.417H826.98C825.674 448.417 824.69 447.24 824.926 445.957L825.461 442.919C825.632 441.913 826.509 441.207 827.514 441.207H897.84C898.845 441.207 899.722 441.934 899.894 442.919L900.428 445.957C900.664 447.24 899.68 448.417 898.374 448.417H898.396Z" fill="url(#paint20_linear_786_218)"/>
<path d="M896.236 433.205H829.12C827.814 433.205 826.83 432.028 827.066 430.745L827.601 427.707C827.772 426.701 828.649 425.995 829.654 425.995H895.679C896.685 425.995 897.562 426.723 897.733 427.707L898.268 430.745C898.503 432.028 897.519 433.205 896.214 433.205H896.236Z" fill="url(#paint21_linear_786_218)"/>
<path d="M804.642 101.819C815.297 31.4934 863.5 0 863.5 0C863.5 0 911.702 31.4934 922.357 101.819C933.012 172.144 916.281 342.597 909.328 422.807H817.65C810.697 342.597 793.966 172.144 804.621 101.819H804.642Z" fill="url(#paint22_linear_786_218)"/>
<path d="M863.498 38.6606C850.469 38.6606 825.094 65.5541 826.742 72.3149C827.276 74.4972 829.715 74.5614 833.288 73.5558C852.993 67.9931 873.96 67.9931 893.665 73.5558C897.238 74.5614 899.677 74.4972 900.212 72.3149C901.881 65.5541 876.485 38.6606 863.477 38.6606H863.498Z" fill="url(#paint23_linear_786_218)"/>
<path d="M830.316 70.7105C831.044 68.6138 833.825 63.8427 840.201 57.2531C848.844 48.3314 858.429 42.1055 863.521 42.1055C868.613 42.1055 878.198 48.3314 886.842 57.2531C893.218 63.8213 895.999 68.6138 896.726 70.7105C896.256 70.6463 895.571 70.518 894.651 70.2612C884.531 67.4157 874.069 65.9608 863.521 65.9608C852.974 65.9608 842.512 67.4157 832.392 70.2612C831.472 70.518 830.787 70.6463 830.316 70.7105Z" fill="url(#paint24_linear_786_218)"/>
<path d="M851.86 64.8266C847.602 65.2545 843.387 65.9178 839.215 66.795L862.022 43.988C862.557 43.8596 863.071 43.7954 863.498 43.7954C865.125 43.7954 867.564 44.6512 870.537 46.32C864.312 52.4818 858.086 58.6435 851.86 64.8052V64.8266ZM887.739 60.7402C887.076 60.0128 886.37 59.2426 885.578 58.4296C884.594 57.424 883.61 56.4612 882.647 55.5412L873.533 64.6555C876.592 64.9122 879.63 65.2973 882.647 65.8108C884.337 64.1206 886.027 62.4304 887.739 60.7188V60.7402ZM865.873 64.2704C870.045 60.0984 874.196 55.9477 878.368 51.7757C877.769 51.2836 877.191 50.813 876.614 50.3851C871.971 55.0064 867.328 59.6491 862.664 64.249C862.942 64.249 863.242 64.249 863.52 64.249C864.311 64.249 865.103 64.2704 865.895 64.2918L865.873 64.2704Z" fill="url(#paint25_linear_786_218)"/>
<g style="mix-blend-mode:multiply" opacity="0.4">
<path d="M873.555 14.5485C872.977 14.5485 872.528 14.0779 872.528 13.5216C872.528 12.9653 872.998 12.4946 873.555 12.4946C874.111 12.4946 874.582 12.9653 874.582 13.5216C874.582 14.0779 874.111 14.5485 873.555 14.5485ZM867.885 13.5216C867.885 12.9439 867.414 12.4946 866.858 12.4946C866.302 12.4946 865.831 12.9653 865.831 13.5216C865.831 14.0779 866.302 14.5485 866.858 14.5485C867.414 14.5485 867.885 14.0779 867.885 13.5216ZM861.188 13.5216C861.188 12.9439 860.718 12.4946 860.161 12.4946C859.605 12.4946 859.134 12.9653 859.134 13.5216C859.134 14.0779 859.605 14.5485 860.161 14.5485C860.718 14.5485 861.188 14.0779 861.188 13.5216ZM854.492 13.5216C854.492 12.9439 854.021 12.4946 853.465 12.4946C852.909 12.4946 852.438 12.9653 852.438 13.5216C852.438 14.0779 852.909 14.5485 853.465 14.5485C854.021 14.5485 854.492 14.0779 854.492 13.5216Z" fill="#E3D2B4"/>
</g>
<g style="mix-blend-mode:multiply" opacity="0.4">
<path d="M808.75 189.666C808.044 189.666 807.488 189.11 807.488 188.404V184.81C807.488 184.104 808.044 183.547 808.75 183.547C809.456 183.547 810.012 184.104 810.012 184.81V188.404C810.012 189.11 809.456 189.666 808.75 189.666Z" fill="#CD2D2F"/>
<path d="M818.72 184.831C818.72 184.134 818.155 183.569 817.458 183.569C816.761 183.569 816.196 184.134 816.196 184.831V188.425C816.196 189.123 816.761 189.688 817.458 189.688C818.155 189.688 818.72 189.123 818.72 188.425V184.831Z" fill="#CD2D2F"/>
<path d="M826.165 189.666C825.459 189.666 824.903 189.11 824.903 188.404V184.81C824.903 184.104 825.459 183.547 826.165 183.547C826.871 183.547 827.427 184.104 827.427 184.81V188.404C827.427 189.11 826.871 189.666 826.165 189.666Z" fill="#CD2D2F"/>
<path d="M834.873 189.666C834.167 189.666 833.611 189.11 833.611 188.404V184.81C833.611 184.104 834.167 183.547 834.873 183.547C835.579 183.547 836.135 184.104 836.135 184.81V188.404C836.135 189.11 835.579 189.666 834.873 189.666Z" fill="#CD2D2F"/>
<path d="M843.582 189.666C842.876 189.666 842.32 189.11 842.32 188.404V184.81C842.32 184.104 842.876 183.547 843.582 183.547C844.288 183.547 844.844 184.104 844.844 184.81V188.404C844.844 189.11 844.288 189.666 843.582 189.666Z" fill="#CD2D2F"/>
<path d="M852.288 189.666C851.582 189.666 851.026 189.11 851.026 188.404V184.81C851.026 184.104 851.582 183.547 852.288 183.547C852.994 183.547 853.551 184.104 853.551 184.81V188.404C853.551 189.11 852.994 189.666 852.288 189.666Z" fill="#CD2D2F"/>
<path d="M860.976 189.666C860.27 189.666 859.714 189.11 859.714 188.404V184.81C859.714 184.104 860.27 183.547 860.976 183.547C861.682 183.547 862.238 184.104 862.238 184.81V188.404C862.238 189.11 861.682 189.666 860.976 189.666Z" fill="#CD2D2F"/>
<path d="M869.684 189.666C868.978 189.666 868.422 189.11 868.422 188.404V184.81C868.422 184.104 868.978 183.547 869.684 183.547C870.39 183.547 870.946 184.104 870.946 184.81V188.404C870.946 189.11 870.39 189.666 869.684 189.666Z" fill="#CD2D2F"/>
<path d="M878.39 189.666C877.684 189.666 877.128 189.11 877.128 188.404V184.81C877.128 184.104 877.684 183.547 878.39 183.547C879.096 183.547 879.652 184.104 879.652 184.81V188.404C879.652 189.11 879.096 189.666 878.39 189.666Z" fill="#CD2D2F"/>
<path d="M887.099 189.666C886.393 189.666 885.837 189.11 885.837 188.404V184.81C885.837 184.104 886.393 183.547 887.099 183.547C887.805 183.547 888.361 184.104 888.361 184.81V188.404C888.361 189.11 887.805 189.666 887.099 189.666Z" fill="#CD2D2F"/>
<path d="M895.807 189.666C895.101 189.666 894.545 189.11 894.545 188.404V184.81C894.545 184.104 895.101 183.547 895.807 183.547C896.513 183.547 897.069 184.104 897.069 184.81V188.404C897.069 189.11 896.513 189.666 895.807 189.666Z" fill="#CD2D2F"/>
<path d="M904.513 189.666C903.807 189.666 903.251 189.11 903.251 188.404V184.81C903.251 184.104 903.807 183.547 904.513 183.547C905.219 183.547 905.775 184.104 905.775 184.81V188.404C905.775 189.11 905.219 189.666 904.513 189.666Z" fill="#CD2D2F"/>
<path d="M913.201 189.666C912.495 189.666 911.938 189.11 911.938 188.404V184.81C911.938 184.104 912.495 183.547 913.201 183.547C913.907 183.547 914.463 184.104 914.463 184.81V188.404C914.463 189.11 913.907 189.666 913.201 189.666Z" fill="#CD2D2F"/>
<path d="M921.907 189.666C921.201 189.666 920.644 189.11 920.644 188.404V184.81C920.644 184.104 921.201 183.547 921.907 183.547C922.613 183.547 923.169 184.104 923.169 184.81V188.404C923.169 189.11 922.613 189.666 921.907 189.666Z" fill="#CD2D2F"/>
</g>
<g style="mix-blend-mode:multiply" opacity="0.4">
<g style="mix-blend-mode:multiply" opacity="0.4">
<path d="M895.826 258.771C895.826 259.478 895.249 260.055 894.543 260.055C893.837 260.055 893.259 259.478 893.259 258.771C893.259 258.065 893.837 257.488 894.543 257.488C895.249 257.488 895.826 258.065 895.826 258.771ZM894.543 265.832C893.837 265.832 893.259 266.409 893.259 267.116C893.259 267.822 893.837 268.399 894.543 268.399C895.249 268.399 895.826 267.822 895.826 267.116C895.826 266.409 895.249 265.832 894.543 265.832ZM894.543 274.176C893.837 274.176 893.259 274.754 893.259 275.46C893.259 276.166 893.837 276.743 894.543 276.743C895.249 276.743 895.826 276.166 895.826 275.46C895.826 274.754 895.249 274.176 894.543 274.176ZM894.543 282.52C893.837 282.52 893.259 283.098 893.259 283.804C893.259 284.51 893.837 285.087 894.543 285.087C895.249 285.087 895.826 284.51 895.826 283.804C895.826 283.098 895.249 282.52 894.543 282.52ZM894.543 290.864C893.837 290.864 893.259 291.442 893.259 292.148C893.259 292.854 893.837 293.431 894.543 293.431C895.249 293.431 895.826 292.854 895.826 292.148C895.826 291.442 895.249 290.864 894.543 290.864ZM894.543 299.208C893.837 299.208 893.259 299.786 893.259 300.492C893.259 301.198 893.837 301.775 894.543 301.775C895.249 301.775 895.826 301.198 895.826 300.492C895.826 299.786 895.249 299.208 894.543 299.208ZM894.543 307.552C893.837 307.552 893.259 308.13 893.259 308.836C893.259 309.542 893.837 310.119 894.543 310.119C895.249 310.119 895.826 309.542 895.826 308.836C895.826 308.13 895.249 307.552 894.543 307.552ZM894.543 315.896C893.837 315.896 893.259 316.474 893.259 317.18C893.259 317.886 893.837 318.463 894.543 318.463C895.249 318.463 895.826 317.886 895.826 317.18C895.826 316.474 895.249 315.896 894.543 315.896ZM894.543 324.24C893.837 324.24 893.259 324.818 893.259 325.524C893.259 326.23 893.837 326.807 894.543 326.807C895.249 326.807 895.826 326.23 895.826 325.524C895.826 324.818 895.249 324.24 894.543 324.24ZM894.543 332.584C893.837 332.584 893.259 333.162 893.259 333.868C893.259 334.574 893.837 335.151 894.543 335.151C895.249 335.151 895.826 334.574 895.826 333.868C895.826 333.162 895.249 332.584 894.543 332.584ZM894.543 340.928C893.837 340.928 893.259 341.506 893.259 342.212C893.259 342.918 893.837 343.495 894.543 343.495C895.249 343.495 895.826 342.918 895.826 342.212C895.826 341.506 895.249 340.928 894.543 340.928ZM894.543 349.272C893.837 349.272 893.259 349.85 893.259 350.556C893.259 351.262 893.837 351.84 894.543 351.84C895.249 351.84 895.826 351.262 895.826 350.556C895.826 349.85 895.249 349.272 894.543 349.272Z" fill="#CD2D2F"/>
</g>
</g>
<g style="mix-blend-mode:multiply" opacity="0.4">
<path d="M925.373 195.058C925.373 195.422 925.373 195.764 925.351 196.128H809.305C809.391 255.413 824.752 407.916 825.715 417.458H909.818C909.797 417.822 909.754 418.186 909.733 418.528H817.307C817.285 418.186 817.242 417.822 817.221 417.458H824.645C823.554 406.761 808.342 255.221 808.257 196.128H801.688C801.688 195.764 801.688 195.422 801.667 195.058H925.394H925.373ZM922.827 252.632C922.827 252.268 922.869 251.926 922.891 251.562H889.065C888.766 251.562 888.53 251.797 888.53 252.097V357.125C888.53 357.424 888.766 357.66 889.065 357.66H915.082C915.103 357.296 915.146 356.953 915.167 356.59H889.6V252.632H922.827ZM864.483 102.91C864.782 102.91 865.017 102.675 865.017 102.375V95.9993C865.017 95.9993 864.975 95.9137 864.953 95.8495H921.35C921.286 95.4858 921.222 95.1435 921.136 94.7798H914.932C910.46 64.9124 898.158 39.5808 877.426 17.3515H882.754C882.433 16.9878 882.091 16.6241 881.77 16.2817H845.206C844.885 16.6241 844.564 16.9878 844.222 17.3515H875.972C896.939 39.5594 909.326 64.8911 913.841 94.7798H805.86C805.796 95.1435 805.732 95.4858 805.646 95.8495H863.969C863.969 95.8495 863.905 95.9351 863.905 95.9993V101.84H804.619C804.577 102.182 804.513 102.546 804.47 102.91H864.461H864.483Z" fill="#CD2D2F"/>
</g>
<g style="mix-blend-mode:multiply" opacity="0.2">
<path d="M738.359 422.807H739.429V362.238C739.065 362.666 738.701 363.072 738.359 363.479V422.807Z" fill="#C20043"/>
<path d="M783.31 422.807V416.966H747.709V374.754L797.046 319.127L797.174 318.977V280.509C796.832 281.536 796.468 282.541 796.105 283.547V318.592L747.709 373.17V353.166C747.346 353.551 746.982 353.936 746.64 354.321V422.849H747.709V418.078H782.241V422.849H783.31V422.807Z" fill="#C20043"/>
</g>
<g style="mix-blend-mode:multiply" opacity="0.2">
<path d="M988.638 422.807H987.568V362.238C987.932 362.666 988.295 363.072 988.638 363.479V422.807Z" fill="#C20043"/>
<path d="M943.686 422.807V416.966H979.287V374.754L929.951 319.127L929.822 318.977V280.509C930.165 281.536 930.528 282.541 930.892 283.547V318.592L979.287 373.17V353.166C979.651 353.551 980.015 353.936 980.357 354.321V422.849H979.287V418.078H944.756V422.849H943.686V422.807Z" fill="#C20043"/>
</g>
</g>
<defs>
<linearGradient id="paint0_linear_786_218" x1="334.646" y1="466.687" x2="143.119" y2="727.363" gradientUnits="userSpaceOnUse">
<stop stop-color="#FF2F65" stop-opacity="0.8"/>
<stop offset="1" stop-color="#FF2F65" stop-opacity="0"/>
</linearGradient>
<linearGradient id="paint1_linear_786_218" x1="1393.34" y1="466.69" x2="1584.87" y2="727.356" gradientUnits="userSpaceOnUse">
<stop stop-color="#FF2F65" stop-opacity="0.8"/>
<stop offset="1" stop-color="#FF2F65" stop-opacity="0"/>
</linearGradient>
<linearGradient id="paint2_linear_786_218" x1="428.029" y1="529.794" x2="428.029" y2="828.737" gradientUnits="userSpaceOnUse">
<stop offset="0.27" stop-color="white"/>
<stop offset="0.4" stop-color="#FFFCF7"/>
<stop offset="0.6" stop-color="#FFF6E3"/>
<stop offset="0.83" stop-color="#FFEBC2"/>
<stop offset="1" stop-color="#FFE2A5"/>
</linearGradient>
<linearGradient id="paint3_linear_786_218" x1="944.223" y1="510.098" x2="944.223" y2="533.59" gradientUnits="userSpaceOnUse">
<stop offset="0.49" stop-color="#580043"/>
<stop offset="0.59" stop-color="#780043"/>
<stop offset="0.7" stop-color="#990043"/>
<stop offset="0.81" stop-color="#B00043"/>
<stop offset="0.91" stop-color="#BE0043"/>
<stop offset="1" stop-color="#C30043"/>
</linearGradient>
<linearGradient id="paint4_linear_786_218" x1="944.223" y1="502.973" x2="944.223" y2="512.088" gradientUnits="userSpaceOnUse">
<stop offset="0.49" stop-color="#580043"/>
<stop offset="1" stop-color="#C30043"/>
</linearGradient>
<linearGradient id="paint5_linear_786_218" x1="944.223" y1="502.974" x2="944.223" y2="512.088" gradientUnits="userSpaceOnUse">
<stop offset="0.49" stop-color="#580043"/>
<stop offset="1" stop-color="#C30043"/>
</linearGradient>
<linearGradient id="paint6_linear_786_218" x1="918.42" y1="475.289" x2="883.718" y2="480.851" gradientUnits="userSpaceOnUse">
<stop stop-color="#580043"/>
<stop offset="0.17" stop-color="#630043"/>
<stop offset="0.47" stop-color="#810043"/>
<stop offset="0.87" stop-color="#B10043"/>
<stop offset="1" stop-color="#C30043"/>
</linearGradient>
<linearGradient id="paint7_linear_786_218" x1="973.748" y1="476.037" x2="1004.28" y2="484.36" gradientUnits="userSpaceOnUse">
<stop stop-color="#580043"/>
<stop offset="0.17" stop-color="#630043"/>
<stop offset="0.47" stop-color="#810043"/>
<stop offset="0.87" stop-color="#B10043"/>
<stop offset="1" stop-color="#C30043"/>
</linearGradient>
<linearGradient id="paint8_linear_786_218" x1="910.419" y1="318.592" x2="996.191" y2="318.592" gradientUnits="userSpaceOnUse">
<stop offset="0.03" stop-color="#770043"/>
<stop offset="0.54" stop-color="#580043"/>
<stop offset="0.62" stop-color="#630043"/>
<stop offset="0.76" stop-color="#810043"/>
<stop offset="0.94" stop-color="#B10043"/>
<stop offset="1" stop-color="#C30043"/>
</linearGradient>
<linearGradient id="paint9_linear_786_218" x1="944.222" y1="554.877" x2="944.222" y2="482.177" gradientUnits="userSpaceOnUse">
<stop stop-color="#580043"/>
<stop offset="0.17" stop-color="#630043"/>
<stop offset="0.47" stop-color="#810043"/>
<stop offset="0.87" stop-color="#B10043"/>
<stop offset="1" stop-color="#C30043"/>
</linearGradient>
<linearGradient id="paint10_linear_786_218" x1="909.327" y1="328.819" x2="1013.86" y2="351.027" gradientUnits="userSpaceOnUse">
<stop stop-color="#850043"/>
<stop offset="0.57" stop-color="#FF0043"/>
<stop offset="0.86" stop-color="#FF7F62"/>
<stop offset="1" stop-color="#FFBA71"/>
</linearGradient>
<linearGradient id="paint11_linear_786_218" x1="782.775" y1="510.098" x2="782.775" y2="533.59" gradientUnits="userSpaceOnUse">
<stop offset="0.49" stop-color="#580043"/>
<stop offset="0.59" stop-color="#780043"/>
<stop offset="0.7" stop-color="#990043"/>
<stop offset="0.81" stop-color="#B00043"/>
<stop offset="0.91" stop-color="#BE0043"/>
<stop offset="1" stop-color="#C30043"/>
</linearGradient>
<linearGradient id="paint12_linear_786_218" x1="782.774" y1="502.973" x2="782.774" y2="512.088" gradientUnits="userSpaceOnUse">
<stop offset="0.49" stop-color="#580043"/>
<stop offset="1" stop-color="#C30043"/>
</linearGradient>
<linearGradient id="paint13_linear_786_218" x1="782.774" y1="502.974" x2="782.774" y2="512.088" gradientUnits="userSpaceOnUse">
<stop offset="0.49" stop-color="#580043"/>
<stop offset="1" stop-color="#C30043"/>
</linearGradient>
<linearGradient id="paint14_linear_786_218" x1="808.556" y1="475.289" x2="843.259" y2="480.851" gradientUnits="userSpaceOnUse">
<stop stop-color="#580043"/>
<stop offset="0.17" stop-color="#630043"/>
<stop offset="0.47" stop-color="#810043"/>
<stop offset="0.87" stop-color="#B10043"/>
<stop offset="1" stop-color="#C30043"/>
</linearGradient>
<linearGradient id="paint15_linear_786_218" x1="753.229" y1="476.037" x2="722.698" y2="484.36" gradientUnits="userSpaceOnUse">
<stop stop-color="#580043"/>
<stop offset="0.17" stop-color="#630043"/>
<stop offset="0.47" stop-color="#810043"/>
<stop offset="0.87" stop-color="#B10043"/>
<stop offset="1" stop-color="#C30043"/>
</linearGradient>
<linearGradient id="paint16_linear_786_218" x1="816.579" y1="318.592" x2="730.807" y2="318.592" gradientUnits="userSpaceOnUse">
<stop offset="0.03" stop-color="#770043"/>
<stop offset="0.54" stop-color="#580043"/>
<stop offset="0.62" stop-color="#630043"/>
<stop offset="0.76" stop-color="#810043"/>
<stop offset="0.94" stop-color="#B10043"/>
<stop offset="1" stop-color="#C30043"/>
</linearGradient>
<linearGradient id="paint17_linear_786_218" x1="782.775" y1="554.877" x2="782.775" y2="482.177" gradientUnits="userSpaceOnUse">
<stop stop-color="#580043"/>
<stop offset="0.17" stop-color="#630043"/>
<stop offset="0.47" stop-color="#810043"/>
<stop offset="0.87" stop-color="#B10043"/>
<stop offset="1" stop-color="#C30043"/>
</linearGradient>
<linearGradient id="paint18_linear_786_218" x1="817.673" y1="328.819" x2="713.137" y2="351.027" gradientUnits="userSpaceOnUse">
<stop stop-color="#850043"/>
<stop offset="0.57" stop-color="#FF0043"/>
<stop offset="0.86" stop-color="#FF7F62"/>
<stop offset="1" stop-color="#FFBA71"/>
</linearGradient>
<linearGradient id="paint19_linear_786_218" x1="862.667" y1="433.141" x2="862.667" y2="477.749" gradientUnits="userSpaceOnUse">
<stop offset="0.49" stop-color="#580043"/>
<stop offset="0.59" stop-color="#780043"/>
<stop offset="0.7" stop-color="#990043"/>
<stop offset="0.81" stop-color="#B00043"/>
<stop offset="0.91" stop-color="#BE0043"/>
<stop offset="1" stop-color="#C30043"/>
</linearGradient>
<linearGradient id="paint20_linear_786_218" x1="862.666" y1="419.62" x2="862.666" y2="436.928" gradientUnits="userSpaceOnUse">
<stop offset="0.49" stop-color="#580043"/>
<stop offset="1" stop-color="#C30043"/>
</linearGradient>
<linearGradient id="paint21_linear_786_218" x1="862.667" y1="419.619" x2="862.667" y2="436.928" gradientUnits="userSpaceOnUse">
<stop offset="0.49" stop-color="#580043"/>
<stop offset="1" stop-color="#C30043"/>
</linearGradient>
<linearGradient id="paint22_linear_786_218" x1="925.823" y1="211.403" x2="801.155" y2="211.403" gradientUnits="userSpaceOnUse">
<stop offset="0.04" stop-color="#FF9066"/>
<stop offset="0.05" stop-color="#F98363"/>
<stop offset="0.08" stop-color="#E75B59"/>
<stop offset="0.11" stop-color="#D93A51"/>
<stop offset="0.14" stop-color="#CD204A"/>
<stop offset="0.17" stop-color="#C50E46"/>
<stop offset="0.21" stop-color="#C00343"/>
<stop offset="0.24" stop-color="#BF0043"/>
<stop offset="0.57" stop-color="#FF0043"/>
<stop offset="0.63" stop-color="#FF0F46"/>
<stop offset="0.73" stop-color="#FF3951"/>
<stop offset="0.88" stop-color="#FF7B61"/>
<stop offset="1" stop-color="#FFBA71"/>
</linearGradient>
<linearGradient id="paint23_linear_786_218" x1="863.498" y1="19.8759" x2="863.498" y2="86.3928" gradientUnits="userSpaceOnUse">
<stop offset="0.03" stop-color="#770043"/>
<stop offset="0.54" stop-color="#580043"/>
<stop offset="0.62" stop-color="#630043"/>
<stop offset="0.76" stop-color="#810043"/>
<stop offset="0.94" stop-color="#B10043"/>
<stop offset="1" stop-color="#C30043"/>
</linearGradient>
<linearGradient id="paint24_linear_786_218" x1="856.825" y1="85.6442" x2="879.439" y2="34.874" gradientUnits="userSpaceOnUse">
<stop stop-color="#FF17D0"/>
<stop offset="1" stop-color="#FFD394"/>
</linearGradient>
<linearGradient id="paint25_linear_786_218" x1="862.386" y1="101.883" x2="864.376" y2="32.5631" gradientUnits="userSpaceOnUse">
<stop stop-color="#FFA4A3"/>
<stop offset="0.01" stop-color="#FFA4A3" stop-opacity="0.98"/>
<stop offset="0.39" stop-color="#FFA4A3" stop-opacity="0.57"/>
<stop offset="0.68" stop-color="#FFA4A3" stop-opacity="0.26"/>
<stop offset="0.9" stop-color="#FFA4A3" stop-opacity="0.07"/>
<stop offset="1" stop-color="#FFA4A3" stop-opacity="0"/>
</linearGradient>
<clipPath id="clip0_786_218">
<rect width="1727" height="955.455" fill="white"/>
</clipPath>
</defs>
</svg>
