<svg width="53" height="54" viewBox="0 0 53 54" fill="none" xmlns="http://www.w3.org/2000/svg">
<g clip-path="url(#clip0_460_1000)">
<rect y="0.5" width="52.3026" height="53" rx="26.1513" fill="white"/>
<g filter="url(#filter0_d_460_1000)">
<circle cx="25.8027" cy="27.0001" r="20.2237" fill="white"/>
<path fill-rule="evenodd" clip-rule="evenodd" d="M18.4804 38.1576C19.8751 39.5523 23.5014 41.5049 26.8488 38.1576C28.7084 36.1817 33.6133 33.4155 38.3554 38.1576C40.0988 39.901 41.7725 40.5286 42.8883 40.2497C47.4212 35.7168 47.0725 25.6049 47.0725 25.6049L44.6317 24.2102C43.3929 23.5134 42.3949 22.796 41.5306 22.1747C38.5024 19.9981 37.1166 19.002 32.7764 24.2102C29.9869 28.0457 23.1527 34.3918 18.1317 29.0918C16.8532 27.8133 13.3198 26.0234 9.41457 29.0918L6.6251 31.5326L5.57898 32.2177C5.63967 32.4604 5.66867 32.8189 5.70321 33.2458C5.80097 34.4542 5.94313 36.2112 6.97372 37.4479C8.71714 35.4721 13.1804 33.4155 18.4804 38.1576ZM8.36842 39.5523C9.64693 37.6927 12.8316 35.4379 18.1316 39.901C19.9912 41.2958 24.4776 43.2484 27.5461 39.901C28.9408 38.0414 32.7066 35.4379 36.6118 39.901C37.193 40.7146 38.9829 42.2721 41.4934 41.9931C35.682 47.9207 21.4789 55.4523 8.36842 39.5523Z" fill="#2E2E30"/>
<circle cx="25.8026" cy="26.9999" r="20.9211" stroke="#2F2F30" stroke-width="2.78947"/>
<path d="M20.2237 29.4408L18.829 28.3947C20.5724 28.0461 30.3356 17.5855 31.3816 16.5395C32.2185 15.7026 32.8926 15.9583 33.125 16.1908L34.8685 17.5855C34.0549 18.2829 31.8698 20.375 29.6382 23.1645C27.4066 25.954 22.432 28.511 20.2237 29.4408Z" fill="#2E2E30"/>
<path d="M19.5263 21.0722C18.8151 20.3611 16.9693 18.8639 16.0394 18.2828L16.7368 17.5854C17.0855 17.2367 17.4342 17.2367 17.7828 17.5854L20.2236 19.6775C21.0605 20.2354 21.9671 19.9099 22.3157 19.6775C22.8969 19.2126 24.1986 18.1433 24.7565 17.5854C25.3144 17.0275 25.9188 17.3529 26.1513 17.5854L27.1973 18.6314L22.6644 22.8156C21.8508 22.5832 20.2236 21.7696 19.5263 21.0722Z" fill="#2E2E30"/>
<path d="M11.5066 25.6051C9.83288 25.6051 7.08989 27.4648 5.92761 28.3946V24.9078L9.76314 23.513C11.5066 22.467 11.8552 21.7696 13.5987 20.3749C13.9473 20.0262 14.9934 19.6775 15.6908 20.0262C16.2487 20.3051 18.0153 21.7696 18.8289 22.467C19.1776 22.8156 20.6886 23.8617 21.6184 24.2104L17.7829 26.9999C17.5039 27.2788 17.2017 27.1161 17.0855 26.9999C15.1329 25.6051 12.5526 25.4889 11.5066 25.6051Z" fill="#2E2E30"/>
<path d="M6.97366 20.7235L6.2763 23.513C7.67103 23.2341 9.182 22.0021 9.76314 21.4209L12.2039 18.9801C12.4829 18.7012 13.0175 18.6314 13.25 18.6314L12.2039 17.5854C11.646 17.0275 11.0416 17.3529 10.8092 17.5854L10.1118 18.2828C8.99603 19.6775 7.55481 20.4911 6.97366 20.7235Z" fill="#2E2E30"/>
</g>
</g>
<defs>
<filter id="filter0_d_460_1000" x="-1.39476" y="-0.197496" width="54.3947" height="54.3945" filterUnits="userSpaceOnUse" color-interpolation-filters="sRGB">
<feFlood flood-opacity="0" result="BackgroundImageFix"/>
<feColorMatrix in="SourceAlpha" type="matrix" values="0 0 0 0 0 0 0 0 0 0 0 0 0 0 0 0 0 0 127 0" result="hardAlpha"/>
<feOffset/>
<feGaussianBlur stdDeviation="2.44079"/>
<feComposite in2="hardAlpha" operator="out"/>
<feColorMatrix type="matrix" values="0 0 0 0 0 0 0 0 0 0 0 0 0 0 0 0 0 0 0.79 0"/>
<feBlend mode="normal" in2="BackgroundImageFix" result="effect1_dropShadow_460_1000"/>
<feBlend mode="normal" in="SourceGraphic" in2="effect1_dropShadow_460_1000" result="shape"/>
</filter>
<clipPath id="clip0_460_1000">
<rect y="0.5" width="52.3026" height="53" rx="26.1513" fill="white"/>
</clipPath>
</defs>
</svg>
