<svg width="213" height="214" viewBox="0 0 213 214" fill="none" xmlns="http://www.w3.org/2000/svg">
<path d="M106.5 178.003H186.375M133.125 44.8775L159.75 71.5025M146.438 31.565C149.968 28.0343 154.757 26.0508 159.75 26.0508C162.222 26.0508 164.671 26.5377 166.955 27.4839C169.239 28.43 171.314 29.8168 173.062 31.565C174.811 33.3132 176.197 35.3887 177.144 37.6728C178.09 39.957 178.577 42.4051 178.577 44.8775C178.577 47.3499 178.09 49.798 177.144 52.0822C176.197 54.3663 174.811 56.4418 173.062 58.19L62.125 169.128L26.625 178.003L35.5 142.503L146.438 31.565Z" stroke="black" stroke-width="17.75" stroke-linecap="round" stroke-linejoin="round"/>
</svg>
