<svg width="50" height="50" viewBox="0 0 50 50" fill="none" xmlns="http://www.w3.org/2000/svg">
<path d="M37.5 31.25H33.3333V35.4167H37.5M37.5 22.9167H33.3333V27.0833H37.5M41.6666 39.5833H25V35.4167H29.1666V31.25H25V27.0833H29.1666V22.9167H25V18.75H41.6666M20.8333 14.5833H16.6666V10.4167H20.8333M20.8333 22.9167H16.6666V18.75H20.8333M20.8333 31.25H16.6666V27.0833H20.8333M20.8333 39.5833H16.6666V35.4167H20.8333M12.5 14.5833H8.33329V10.4167H12.5M12.5 22.9167H8.33329V18.75H12.5M12.5 31.25H8.33329V27.0833H12.5M12.5 39.5833H8.33329V35.4167H12.5M25 14.5833V6.25H4.16663V43.75H45.8333V14.5833H25Z" fill="black"/>
</svg>
