<svg width="43" height="43" viewBox="0 0 43 43" fill="none" xmlns="http://www.w3.org/2000/svg">
<path d="M21.948 2.63413C20.6938 2.54455 19.3859 2.83121 18.2213 3.51205C17.4732 3.94039 16.817 4.51219 16.2904 5.19465C15.7637 5.87712 15.3769 6.65683 15.1522 7.48908C14.9275 8.32134 14.8693 9.18976 14.9809 10.0446C15.0925 10.8994 15.3717 11.7237 15.8026 12.4704L28.9534 35.2245C30.763 38.3779 34.7763 39.417 37.9297 37.6254C41.0651 35.8337 42.1042 31.8025 40.3126 28.667L27.1976 5.91288C26.6559 4.98003 25.8945 4.19368 24.9795 3.62224C24.0646 3.05081 23.0239 2.7116 21.948 2.63413ZM12.2192 12.112L2.68758 28.667C2.10678 29.6626 1.79784 30.7933 1.79175 31.9458C1.79175 32.8093 1.96183 33.6643 2.29227 34.4621C2.62272 35.2599 3.10706 35.9847 3.71764 36.5953C4.32823 37.2059 5.0531 37.6902 5.85086 38.0207C6.64863 38.3511 7.50367 38.5212 8.36716 38.5212C9.51974 38.5177 10.6511 38.2113 11.648 37.6327C12.6448 37.0541 13.472 36.2236 14.0467 35.2245V35.2425L19.7084 25.4241C17.2897 21.3033 14.8172 17.2004 12.5955 12.9541C12.4522 12.6854 12.3267 12.3987 12.2372 12.112H12.2192Z" fill="black"/>
</svg>
