<svg width="47" height="47" viewBox="0 0 47 47" fill="none" xmlns="http://www.w3.org/2000/svg">
<path d="M46.0819 22.6059C46.014 22.4572 44.4057 18.8863 40.8532 15.3337C36.0999 10.5879 30.1093 8.07812 23.4999 8.07812C16.8905 8.07812 10.8999 10.5879 6.15212 15.3337C2.59958 18.8863 0.991303 22.4572 0.917866 22.6059C0.793487 22.8879 0.729248 23.1927 0.729248 23.5009C0.729248 23.8091 0.793487 24.1139 0.917866 24.3959C0.985795 24.5465 2.59408 28.1155 6.14845 31.6681C10.8999 36.414 16.8905 38.9219 23.4999 38.9219C30.1093 38.9219 36.0999 36.414 40.8458 31.6681C44.4002 28.1155 46.0085 24.5465 46.0764 24.3959C46.2017 24.1143 46.2668 23.8097 46.2678 23.5015C46.2687 23.1933 46.2054 22.8883 46.0819 22.6059ZM37.6256 28.6645C33.6838 32.5457 28.9324 34.5156 23.4999 34.5156C18.0674 34.5156 13.316 32.5457 9.3797 28.6627C7.8308 27.1301 6.49846 25.3931 5.41958 23.5C6.49877 21.6076 7.83109 19.8713 9.3797 18.3392C13.3178 14.4543 18.0674 12.4844 23.4999 12.4844C28.9324 12.4844 33.682 14.4543 37.6201 18.3392C39.1689 19.8712 40.5012 21.6075 41.5802 23.5C40.5012 25.393 39.1688 27.1299 37.6201 28.6627L37.6256 28.6645ZM23.4999 15.4219C21.9022 15.4219 20.3404 15.8956 19.0119 16.7833C17.6835 17.6709 16.6481 18.9326 16.0367 20.4086C15.4253 21.8847 15.2653 23.509 15.577 25.076C15.8887 26.643 16.6581 28.0824 17.7878 29.2121C18.9175 30.3418 20.3569 31.1112 21.9239 31.4229C23.4909 31.7346 25.1152 31.5746 26.5913 30.9632C28.0673 30.3518 29.329 29.3164 30.2166 27.988C31.1042 26.6595 31.578 25.0977 31.578 23.5C31.5756 21.3583 30.7237 19.305 29.2093 17.7906C27.6949 16.2762 25.6416 15.4243 23.4999 15.4219ZM23.4999 27.1719C22.7737 27.1719 22.0637 26.9565 21.4599 26.5531C20.8561 26.1496 20.3854 25.5761 20.1075 24.9052C19.8296 24.2342 19.7569 23.4959 19.8986 22.7837C20.0403 22.0714 20.39 21.4171 20.9035 20.9036C21.417 20.3901 22.0713 20.0404 22.7836 19.8987C23.4958 19.757 24.2341 19.8297 24.9051 20.1076C25.576 20.3855 26.1495 20.8562 26.5529 21.46C26.9564 22.0639 27.1718 22.7738 27.1718 23.5C27.1718 24.4738 26.7849 25.4078 26.0963 26.0964C25.4077 26.785 24.4737 27.1719 23.4999 27.1719Z" fill="black"/>
</svg>
