<svg width="491" height="550" viewBox="0 0 491 550" fill="none" xmlns="http://www.w3.org/2000/svg">
<path d="M312.066 81.9008L33.0995 205.672C25.2363 209.161 21.6754 218.397 25.1465 226.301L116.57 434.483C118.222 438.272 121.317 441.246 125.169 442.747C129.021 444.247 133.312 444.15 137.093 442.478L319.456 361.567C330.902 367.633 343.952 374.538 353.436 379.552C357.819 381.87 362.596 377.304 360.596 372.75L349.777 348.114L416.06 318.706C423.923 315.218 427.484 305.982 424.013 298.078L332.589 89.8955C330.937 86.1063 327.842 83.1322 323.99 81.6317C320.138 80.1311 315.847 80.228 312.066 81.9008Z" fill="white" stroke="#1B1B1B" stroke-width="0.7" stroke-linecap="round" stroke-linejoin="round"/>
<path d="M138.023 278L127.893 294.731" stroke="#1B1B1B" stroke-width="0.7" stroke-linecap="round" stroke-linejoin="round"/>
<path d="M361.344 293.307C358.462 300.123 354.569 306.465 349.796 312.119" stroke="#1B1B1B" stroke-width="0.7" stroke-linecap="round" stroke-linejoin="round"/>
<path d="M411.025 122.577L409.003 124.208L407.934 124.689L415.347 135.003L418.418 131.145" fill="#1B1B1B"/>
<path d="M411.025 122.577L409.003 124.208L407.934 124.689L415.347 135.003L418.418 131.145" stroke="#1B1B1B" stroke-width="0.7" stroke-linecap="round" stroke-linejoin="round"/>
<path d="M409.752 123.959L409.003 124.209L407.934 124.69L427.265 79.292H428.412L431.265 89.1186" fill="#1B1B1B"/>
<path d="M409.752 123.959L409.003 124.209L407.934 124.69L427.265 79.292H428.412L431.265 89.1186" stroke="#1B1B1B" stroke-width="0.7" stroke-linecap="round" stroke-linejoin="round"/>
<path d="M409.004 124.209L420.782 140.949L440.191 96.0315L428.412 79.292L409.004 124.209Z" fill="#1B1B1B"/>
<mask id="mask0_801_465" style="mask-type:luminance" maskUnits="userSpaceOnUse" x="409" y="79" width="32" height="62">
<path fill-rule="evenodd" clip-rule="evenodd" d="M409.003 124.208L420.781 140.948L440.19 96.0305L428.411 79.291L409.003 124.208Z" fill="white"/>
</mask>
<g mask="url(#mask0_801_465)">
<path d="M418.417 98.7584C426.82 96.7921 432.814 97.5367 432.814 97.5367L430.456 108.405C430.456 108.405 424.634 114.821 424.596 115.227C424.557 115.633 417.043 123.105 417.043 123.105C417.043 123.105 413.213 124.689 410.573 124.689C407.933 124.689 407.024 121.318 407.024 121.318L413.175 107.756" fill="#1B1B1B"/>
<path d="M418.417 98.7584C426.82 96.7921 432.814 97.5367 432.814 97.5367L430.456 108.405C430.456 108.405 424.634 114.821 424.596 115.227C424.557 115.633 417.043 123.105 417.043 123.105C417.043 123.105 413.213 124.689 410.573 124.689C407.933 124.689 407.024 121.318 407.024 121.318L413.175 107.756" stroke="#1B1B1B" stroke-width="0.7" stroke-linecap="round" stroke-linejoin="round"/>
</g>
<path fill-rule="evenodd" clip-rule="evenodd" d="M409.004 124.209L420.782 140.949L440.191 96.0315L428.412 79.292L409.004 124.209V124.209Z" stroke="#1B1B1B" stroke-width="0.7" stroke-linecap="round" stroke-linejoin="round"/>
<path d="M413.892 176.622C413.892 176.622 427.831 144.735 429.163 140.948C430.494 137.161 435.869 113.441 435.869 113.441C435.869 113.441 435.033 97.7314 432.814 97.5372C430.595 97.3429 417.06 99.285 415.95 98.7024C414.841 98.1198 412.867 103.085 416.639 104.833C420.411 106.58 423.359 105.888 423.359 105.888C423.359 105.888 413.173 110.577 412.115 111.248C409.489 112.913 408.398 120.182 410.983 118.964C412.628 118.189 416.172 117.152 416.172 117.152C416.172 117.152 409.411 122.881 410.741 125.379C412.599 128.871 417.124 127.572 417.124 127.572C416.902 129.909 403.873 149.905 403.873 149.905L413.892 176.622Z" fill="white"/>
<mask id="mask1_801_465" style="mask-type:luminance" maskUnits="userSpaceOnUse" x="403" y="97" width="33" height="80">
<path fill-rule="evenodd" clip-rule="evenodd" d="M413.893 176.622C413.893 176.622 427.832 144.735 429.164 140.948C430.495 137.161 435.87 113.441 435.87 113.441C435.87 113.441 435.034 97.7314 432.815 97.5372C430.596 97.3429 417.061 99.285 415.951 98.7024C414.842 98.1198 412.868 103.085 416.64 104.833C420.412 106.58 423.36 105.888 423.36 105.888C423.36 105.888 413.174 110.577 412.115 111.248C409.49 112.913 408.399 120.182 410.984 118.964C412.629 118.189 416.173 117.152 416.173 117.152C416.173 117.152 409.412 122.881 410.742 125.379C412.6 128.871 417.125 127.572 417.125 127.572C416.903 129.909 403.874 149.905 403.874 149.905L413.893 176.622Z" fill="white"/>
</mask>
<g mask="url(#mask1_801_465)">
<path d="M413.407 134.719C415.346 130.415 427.385 139.105 434.414 144.546C441.444 149.987 424.072 151.611 424.072 151.611L418.013 149.256" fill="white"/>
</g>
<path fill-rule="evenodd" clip-rule="evenodd" d="M413.892 176.622C413.892 176.622 427.831 144.735 429.163 140.948C430.494 137.161 435.869 113.441 435.869 113.441C435.869 113.441 435.033 97.7314 432.814 97.5372C430.595 97.3429 417.06 99.285 415.95 98.7024C414.841 98.1198 412.867 103.085 416.639 104.833C420.411 106.58 423.359 105.888 423.359 105.888C423.359 105.888 413.173 110.577 412.115 111.248C409.489 112.913 408.398 120.182 410.983 118.964C412.628 118.189 416.172 117.152 416.172 117.152C416.172 117.152 409.411 122.881 410.741 125.379C412.599 128.871 417.124 127.572 417.124 127.572C416.902 129.909 403.873 149.905 403.873 149.905L413.892 176.622Z" stroke="#1B1B1B" stroke-width="0.7" stroke-linecap="round" stroke-linejoin="round"/>
<path d="M242.756 390.653L262.174 506.55L238.301 515.434L203.444 386.532L242.756 390.653Z" fill="white"/>
<mask id="mask2_801_465" style="mask-type:luminance" maskUnits="userSpaceOnUse" x="203" y="386" width="60" height="130">
<path fill-rule="evenodd" clip-rule="evenodd" d="M242.756 390.653L262.174 506.55L238.301 515.434L203.444 386.532L242.756 390.653Z" fill="white"/>
</mask>
<g mask="url(#mask2_801_465)">
<path d="M216.315 433.833C208.421 438.938 259.271 454.694 259.271 454.694L251.662 431.784" fill="white"/>
</g>
<path fill-rule="evenodd" clip-rule="evenodd" d="M242.756 390.653L262.174 506.55L238.301 515.434L203.444 386.532L242.756 390.653V390.653Z" stroke="#1B1B1B" stroke-width="0.7" stroke-linecap="round" stroke-linejoin="round"/>
<path d="M259.786 490.517C259.786 490.517 249.897 504.12 233.715 497.467C233.715 497.467 237.782 517.178 221.502 525.171C193.034 539.147 206.744 549.333 206.744 549.333L269.507 519.049C274.5 517.078 259.786 490.517 259.786 490.517Z" fill="#1B1B1B"/>
<mask id="mask3_801_465" style="mask-type:luminance" maskUnits="userSpaceOnUse" x="203" y="490" width="68" height="60">
<path fill-rule="evenodd" clip-rule="evenodd" d="M259.785 490.517C259.785 490.517 249.897 504.12 233.715 497.467C233.715 497.467 237.782 517.178 221.502 525.171C193.034 539.147 206.744 549.333 206.744 549.333L269.507 519.049C274.5 517.078 259.785 490.517 259.785 490.517Z" fill="white"/>
</mask>
<g mask="url(#mask3_801_465)">
<path d="M197.041 546.744L282.418 505.532L279.664 524.826L211.362 561.97" fill="#1B1B1B"/>
<path d="M197.041 546.744L282.418 505.532L279.664 524.826L211.362 561.97" stroke="#1B1B1B" stroke-width="0.7" stroke-linecap="round" stroke-linejoin="round"/>
</g>
<path fill-rule="evenodd" clip-rule="evenodd" d="M259.786 490.517C259.786 490.517 249.897 504.12 233.715 497.467C233.715 497.467 237.782 517.178 221.502 525.171C193.034 539.147 206.744 549.333 206.744 549.333L269.507 519.049C274.5 517.078 259.786 490.517 259.786 490.517Z" stroke="#1B1B1B" stroke-width="0.7" stroke-linecap="round" stroke-linejoin="round"/>
<path d="M214.457 433.849C257.077 449.783 274.432 429.857 274.432 429.857L232.063 286.587L175.307 309.377L214.457 433.849Z" fill="white" stroke="#1B1B1B" stroke-width="0.7" stroke-linecap="round" stroke-linejoin="round"/>
<path d="M224.969 335.338L321.758 399.679L311.93 423.515L195.263 361.837L224.969 335.338Z" fill="white"/>
<mask id="mask4_801_465" style="mask-type:luminance" maskUnits="userSpaceOnUse" x="195" y="335" width="127" height="89">
<path fill-rule="evenodd" clip-rule="evenodd" d="M224.969 335.338L321.757 399.679L311.93 423.515L195.263 361.837L224.969 335.338Z" fill="white"/>
</mask>
<g mask="url(#mask4_801_465)">
<path d="M265.907 403.446C264.22 412.802 303.375 382.515 303.375 382.515L288.467 375.707" fill="white"/>
</g>
<path fill-rule="evenodd" clip-rule="evenodd" d="M224.969 335.338L321.758 399.679L311.93 423.515L195.263 361.837L224.969 335.338V335.338Z" stroke="#1B1B1B" stroke-width="0.7" stroke-linecap="round" stroke-linejoin="round"/>
<path d="M308.57 390.557C308.57 390.557 311.656 407.178 295.854 414.715C295.854 414.715 307.28 422.455 301.973 440.025C292.693 470.748 310.101 465.969 310.101 465.969L329.716 401.642C331.69 396.58 308.57 390.557 308.57 390.557Z" fill="#1B1B1B"/>
<mask id="mask5_801_465" style="mask-type:luminance" maskUnits="userSpaceOnUse" x="295" y="390" width="35" height="77">
<path fill-rule="evenodd" clip-rule="evenodd" d="M308.572 390.557C308.572 390.557 311.658 407.178 295.855 414.715C295.855 414.715 307.281 422.455 301.974 440.025C292.694 470.748 310.102 465.969 310.102 465.969L329.717 401.642C331.691 396.58 308.572 390.557 308.572 390.557Z" fill="white"/>
</mask>
<g mask="url(#mask5_801_465)">
<path d="M301.929 469.925L327.244 389.784L341.588 408.262L332.912 448.908" fill="#1B1B1B"/>
<path d="M301.929 469.925L327.244 389.784L341.588 408.262L332.912 448.908" stroke="#1B1B1B" stroke-width="0.7" stroke-linecap="round" stroke-linejoin="round"/>
</g>
<path fill-rule="evenodd" clip-rule="evenodd" d="M308.57 390.557C308.57 390.557 311.656 407.178 295.854 414.715C295.854 414.715 307.28 422.455 301.973 440.025C292.693 470.748 310.101 465.969 310.101 465.969L329.716 401.642C331.69 396.58 308.57 390.557 308.57 390.557Z" stroke="#1B1B1B" stroke-width="0.7" stroke-linecap="round" stroke-linejoin="round"/>
<path d="M193.826 352.42C195.283 351.622 196.605 350.523 198.165 350.055C335.073 308.978 377.203 294.145 304.181 204.937L264.38 219.494L260.935 248.544L165.657 298.721L196.729 350.833" fill="white"/>
<mask id="mask6_801_465" style="mask-type:luminance" maskUnits="userSpaceOnUse" x="165" y="204" width="175" height="149">
<path fill-rule="evenodd" clip-rule="evenodd" d="M193.826 352.42C195.283 351.622 196.605 350.523 198.165 350.055C335.073 308.978 377.203 294.145 304.181 204.937L264.38 219.494L260.935 248.544L165.657 298.721L196.729 350.833" fill="white"/>
</mask>
<g mask="url(#mask6_801_465)">
<path d="M201.617 315.376C216.925 282.868 247.541 338.547 305.711 317.451C363.882 296.355 266.931 349.959 266.931 349.959L205.359 335.338" fill="white"/>
<path d="M260.126 240.33C251.629 248.406 330.713 242.529 342.449 258.635C354.185 274.74 345.212 233.241 345.212 233.241L310.188 219.913" fill="white"/>
</g>
<path d="M193.826 352.42C195.283 351.622 196.605 350.523 198.165 350.055C335.073 308.978 377.203 294.145 304.181 204.937L264.38 219.494L260.935 248.544L165.657 298.721L196.729 350.833" stroke="#1B1B1B" stroke-width="0.7" stroke-linecap="round" stroke-linejoin="round"/>
<path d="M210.03 234.994C210.03 234.994 179.546 250.238 176.632 250.592C173.719 250.947 157.217 252.439 154.719 252.97C152.222 253.502 130.977 252.144 130.561 251.613C130.145 251.081 122.101 253.989 133.13 257.886C144.159 261.782 159.297 262.358 159.714 264.129C160.13 265.9 149.517 268.561 149.309 270.507C149.101 272.453 158.049 271.523 158.049 271.523C158.049 271.523 174.072 268.293 175.737 267.405C177.401 266.518 218.203 255.376 218.203 255.376L210.03 234.994Z" fill="white"/>
<mask id="mask7_801_465" style="mask-type:luminance" maskUnits="userSpaceOnUse" x="127" y="234" width="92" height="38">
<path fill-rule="evenodd" clip-rule="evenodd" d="M210.029 234.994C210.029 234.994 179.544 250.238 176.631 250.592C173.718 250.947 157.215 252.439 154.718 252.97C152.221 253.502 130.976 252.144 130.56 251.613C130.143 251.081 122.1 253.989 133.129 257.886C144.157 261.782 159.296 262.358 159.712 264.129C160.129 265.9 149.516 268.561 149.308 270.507C149.1 272.453 158.048 271.523 158.048 271.523C158.048 271.523 174.071 268.293 175.735 267.405C177.4 266.518 218.202 255.376 218.202 255.376L210.029 234.994Z" fill="white"/>
</mask>
<g mask="url(#mask7_801_465)">
<path d="M186.04 246.644C177.913 245.568 188.227 259.146 185.076 268.88C182.486 276.879 198.003 267.419 198.003 267.419L198.488 255.724" fill="white"/>
</g>
<path fill-rule="evenodd" clip-rule="evenodd" d="M210.03 234.994C210.03 234.994 179.546 250.238 176.633 250.592C173.719 250.947 157.217 252.439 154.719 252.97C152.222 253.502 130.977 252.144 130.561 251.613C130.145 251.081 122.101 253.989 133.13 257.886C144.159 261.782 159.297 262.358 159.714 264.129C160.13 265.9 149.517 268.561 149.309 270.507C149.101 272.453 158.049 271.523 158.049 271.523C158.049 271.523 174.072 268.293 175.737 267.405C177.401 266.518 218.203 255.376 218.203 255.376L210.03 234.994Z" stroke="#1B1B1B" stroke-width="0.7" stroke-linecap="round" stroke-linejoin="round"/>
<path d="M183.824 243.866C179.558 248.56 201.797 278.748 201.797 278.748C201.797 278.748 246.717 257.361 264.094 238.183C281.471 219.004 294.295 147.718 294.295 147.718C294.295 147.718 281.716 142.716 277.96 143.005C259.117 144.459 236.705 211.082 236.705 211.082L183.824 243.866Z" fill="white" stroke="#1B1B1B" stroke-width="0.7" stroke-linecap="round" stroke-linejoin="round"/>
<path d="M267.718 156.617C263.797 164.749 261.345 175.409 267.65 185.065C280.019 204.01 248.189 241.279 248.189 241.279C272.497 243.707 329.737 236.049 329.737 236.049C316.924 198.159 346.961 145.585 344.822 144.549C320.378 132.708 276.618 143.312 276.618 143.312" fill="white"/>
<mask id="mask8_801_465" style="mask-type:luminance" maskUnits="userSpaceOnUse" x="248" y="138" width="97" height="104">
<path fill-rule="evenodd" clip-rule="evenodd" d="M267.718 156.617C263.797 164.749 261.345 175.409 267.65 185.065C280.019 204.01 248.189 241.279 248.189 241.279C272.497 243.707 329.737 236.049 329.737 236.049C316.924 198.159 346.961 145.585 344.822 144.549C320.378 132.708 276.618 143.312 276.618 143.312" fill="white"/>
</mask>
<g mask="url(#mask8_801_465)">
<path d="M288.98 131.958C262.801 164.443 310.097 174.552 336.497 134.744L288.98 131.958Z" fill="white"/>
<path d="M288.98 131.958C262.801 164.443 310.097 174.552 336.497 134.744" stroke="#1B1B1B" stroke-width="0.7" stroke-linecap="round" stroke-linejoin="round"/>
<path d="M291.845 129.078C265.667 161.563 311.245 159.152 339.363 131.864L291.845 129.078Z" fill="white"/>
<path d="M291.845 129.078C265.667 161.563 311.245 159.152 339.363 131.864" stroke="#1B1B1B" stroke-width="0.7" stroke-linecap="round" stroke-linejoin="round"/>
</g>
<path d="M267.718 156.617C263.797 164.749 261.345 175.409 267.65 185.065C280.019 204.01 248.189 241.279 248.189 241.279C272.497 243.707 329.737 236.049 329.737 236.049C316.924 198.159 346.961 145.585 344.822 144.549C320.378 132.708 276.618 143.312 276.618 143.312" stroke="#1B1B1B" stroke-width="0.7" stroke-linecap="round" stroke-linejoin="round"/>
<path d="M167.12 297.949C103.432 325.619 252.622 417.898 252.622 417.898C294.296 406.392 288.015 375.674 288.015 375.674C288.015 375.674 245.731 328.757 208.097 306.997" fill="white"/>
<path d="M167.12 297.949C103.432 325.619 252.622 417.898 252.622 417.898C294.296 406.392 288.015 375.674 288.015 375.674C288.015 375.674 245.731 328.757 208.097 306.997" stroke="#1B1B1B" stroke-width="0.7" stroke-linecap="round" stroke-linejoin="round"/>
<path d="M344.147 144.23C351.116 146.804 380.594 172.146 380.594 172.146L413.569 133.398C434.205 145.674 430.698 166.067 430.698 166.067C430.698 166.067 394.663 225.189 380.847 226.651C362.747 228.566 323.767 181.919 316.143 172.56" fill="white"/>
<path d="M344.147 144.23C351.116 146.804 380.594 172.146 380.594 172.146L413.569 133.398C434.205 145.674 430.698 166.067 430.698 166.067C430.698 166.067 394.663 225.189 380.847 226.651C362.747 228.566 323.767 181.919 316.143 172.56" stroke="#1B1B1B" stroke-width="0.7" stroke-linecap="round" stroke-linejoin="round"/>
<path d="M295.676 143.698L298.901 110.402L319.34 109.737C315.722 116.751 319.176 133.443 321.32 140.847" fill="white"/>
<mask id="mask9_801_465" style="mask-type:luminance" maskUnits="userSpaceOnUse" x="295" y="109" width="27" height="35">
<path fill-rule="evenodd" clip-rule="evenodd" d="M295.678 143.698L298.903 110.402L319.341 109.737C315.723 116.751 319.178 133.443 321.321 140.847" fill="white"/>
</mask>
<g mask="url(#mask9_801_465)">
<path d="M342.955 148.609C322.825 140.161 315.049 135.134 309.31 119.376C302.193 99.8361 324.213 111.872 324.213 111.872C324.213 111.872 326.379 111.809 327.398 113.749C328.418 115.689 336.484 135.418 336.484 135.418" fill="white"/>
</g>
<path d="M295.676 143.698L298.901 110.402L319.34 109.737C315.722 116.751 319.176 133.443 321.32 140.847" stroke="#1B1B1B" stroke-width="0.7" stroke-linecap="round" stroke-linejoin="round"/>
<ellipse cx="260.908" cy="52.4256" rx="46.4119" ry="38.5834" transform="rotate(-20.5606 260.908 52.4256)" fill="#1B1B1B" stroke="#1B1B1B" stroke-width="0.7" stroke-linecap="round" stroke-linejoin="round"/>
<ellipse cx="305.901" cy="93.7543" rx="28.3644" ry="23.4395" transform="rotate(-20.5447 305.901 93.7543)" fill="#1B1B1B" stroke="#1B1B1B" stroke-width="0.7" stroke-linecap="round" stroke-linejoin="round"/>
<path d="M318.769 77.7568C352.941 113.87 323.579 133.643 306.677 119.674L298.063 100.087L318.769 77.7568Z" fill="white"/>
<mask id="mask10_801_465" style="mask-type:luminance" maskUnits="userSpaceOnUse" x="298" y="77" width="37" height="48">
<path fill-rule="evenodd" clip-rule="evenodd" d="M318.771 77.7568C352.943 113.87 323.581 133.643 306.678 119.674L298.065 100.087L318.771 77.7568Z" fill="white"/>
</mask>
<g mask="url(#mask10_801_465)">
<path d="M331.114 102.244C331.534 102.301 331.959 102.188 332.295 101.93C332.632 101.673 332.853 101.292 332.908 100.872L333.272 98.1904C333.392 97.3156 332.781 96.5084 331.907 96.3863C331.487 96.3298 331.061 96.4427 330.725 96.7C330.388 96.9574 330.168 97.338 330.112 97.7582L329.749 100.44C329.628 101.315 330.239 102.122 331.114 102.244Z" fill="#1B1B1B"/>
<path d="M327.022 100.33C326.102 103.581 325.821 104.536 325.821 104.536C330.78 107 323.98 108.89 323.98 108.89" stroke="#1B1B1B" stroke-width="0.7" stroke-linecap="round" stroke-linejoin="round"/>
<path d="M320.603 108.021C320.336 109.159 320.909 110.326 321.972 110.81" stroke="#1B1B1B" stroke-width="0.7" stroke-linecap="round" stroke-linejoin="round"/>
<path d="M321.053 100.406C321.473 100.463 321.898 100.35 322.235 100.093C322.571 99.8353 322.792 99.4546 322.848 99.0344L323.211 96.3525C323.331 95.4777 322.72 94.6705 321.846 94.5485C321.426 94.4919 321.001 94.6047 320.664 94.8621C320.327 95.1194 320.107 95.5002 320.051 95.9203L319.688 98.6021C319.567 99.477 320.178 100.284 321.053 100.406Z" fill="#1B1B1B"/>
<path d="M332.808 92.6968C335.904 94.0831 334.777 95.728 332.785 94.9883C330.794 94.2485 330.785 91.7911 332.808 92.6968Z" fill="#1B1B1B"/>
<path d="M322.466 90.6947C319.114 91.1988 319.536 92.9177 321.652 92.74C323.768 92.5622 324.656 90.3654 322.466 90.6947Z" fill="#1B1B1B"/>
</g>
<path fill-rule="evenodd" clip-rule="evenodd" d="M318.769 77.7568C352.941 113.87 323.579 133.643 306.677 119.674L298.063 100.087L318.769 77.7568Z" stroke="#1B1B1B" stroke-width="0.7" stroke-linecap="round" stroke-linejoin="round"/>
<path d="M301.67 109.42L291.849 98.9873L307.779 75.2005L316.32 74.6825C316.32 74.6825 319.237 72.5976 320.322 74.6825" fill="#1B1B1B"/>
<path d="M301.67 109.42L291.849 98.9873L307.779 75.2005L316.32 74.6825C316.32 74.6825 319.237 72.5976 320.322 74.6825" stroke="#1B1B1B" stroke-width="0.7" stroke-linecap="round" stroke-linejoin="round"/>
<path d="M320.324 74.6826C324.082 81.9044 325.323 97.1934 301.672 109.42L320.324 74.6826Z" fill="#1B1B1B"/>
<path d="M320.324 74.6826C324.082 81.9044 325.323 97.1934 301.672 109.42" stroke="#1B1B1B" stroke-width="0.7" stroke-linecap="round" stroke-linejoin="round"/>
<path d="M309.153 106.423C286.01 101.279 292.221 119.997 307.826 120.179L309.153 106.423Z" fill="white"/>
<path d="M309.153 106.423C286.01 101.279 292.221 119.997 307.826 120.179" stroke="#1B1B1B" stroke-width="0.7" stroke-linecap="round" stroke-linejoin="round"/>
<ellipse cx="300.483" cy="120.179" rx="4.57629" ry="4.59982" fill="#1B1B1B" stroke="#1B1B1B" stroke-width="0.7" stroke-linecap="round" stroke-linejoin="round"/>
<path d="M82.6818 339.926L75.6845 339.837L69.5162 339.76C66.5561 339.715 64.1928 337.279 64.2372 334.319C64.2512 332.898 64.8294 331.54 65.8445 330.545C66.8597 329.55 68.2285 328.999 69.65 329.013L82.8157 329.179C85.7758 329.224 88.1391 331.659 88.0947 334.619C88.0807 336.041 87.5025 337.399 86.4873 338.394C85.4722 339.389 84.1033 339.94 82.6818 339.926Z" fill="white" stroke="#1B1B1B" stroke-width="0.7" stroke-linecap="round" stroke-linejoin="round"/>
<path d="M118.446 374.284C115.362 380.681 108.577 383.78 103.292 381.206L56.9673 358.644C51.682 356.07 49.8973 348.797 52.9812 342.4C56.0651 336.003 62.8497 332.904 68.135 335.478L76.0102 339.314L114.459 358.041C119.745 360.615 121.529 367.887 118.446 374.284Z" fill="white"/>
<mask id="mask11_801_465" style="mask-type:luminance" maskUnits="userSpaceOnUse" x="51" y="334" width="69" height="49">
<path fill-rule="evenodd" clip-rule="evenodd" d="M118.447 374.284C115.363 380.681 108.578 383.78 103.293 381.206L56.9687 358.644C51.6834 356.07 49.8987 348.797 52.9826 342.4C56.0665 336.003 62.851 332.904 68.1363 335.478L76.0115 339.314L114.461 358.041C119.746 360.615 121.531 367.887 118.447 374.284Z" fill="white"/>
</mask>
<g mask="url(#mask11_801_465)">
<path d="M92.5278 335.152C42.5318 344.617 95.9913 376.527 95.9913 376.527L54.4931 386.214L35.4647 353.248L71.9979 323.391" fill="white"/>
</g>
<path fill-rule="evenodd" clip-rule="evenodd" d="M118.446 374.284V374.284C115.362 380.681 108.577 383.78 103.292 381.206L56.9673 358.644C51.682 356.07 49.8973 348.797 52.9812 342.4V342.4C56.0651 336.003 62.8497 332.904 68.135 335.478L76.0102 339.314L114.459 358.041C119.745 360.615 121.529 367.887 118.446 374.284Z" stroke="#1B1B1B" stroke-width="0.7" stroke-linecap="round" stroke-linejoin="round"/>
<path d="M26.6696 328.698L23.7882 336.153C23.3816 337.213 22.5695 338.067 21.5314 338.527C20.4933 338.986 19.3149 339.013 18.2569 338.602L16.2572 337.821C14.0536 336.953 12.9649 334.469 13.8213 332.261L14.3533 330.885L16.7027 324.806C17.1093 323.746 17.9214 322.892 18.9595 322.433C19.9976 321.973 21.176 321.946 22.234 322.358L24.2338 323.139C26.4373 324.006 27.526 326.491 26.6696 328.698Z" fill="white" stroke="#1B1B1B" stroke-width="0.7" stroke-linecap="round" stroke-linejoin="round"/>
<ellipse cx="88.0142" cy="232.575" rx="19.9121" ry="67.7832" transform="rotate(-64.0098 88.0142 232.575)" fill="url(#paint0_linear_801_465)"/>
<path d="M27.3632 307.14C24.5192 319.38 20.0423 331.182 14.0527 342.228C18.7719 344.988 23.814 347.69 29.1105 350.27C38.9304 355.053 48.5358 358.886 57.3367 361.673C63.0544 351.002 69.304 340.625 76.062 330.582C67.19 327.6 58.5237 324.038 50.1193 319.919C42.2834 316.121 34.6842 311.854 27.3632 307.14Z" fill="#1B1B1B" stroke="#1B1B1B" stroke-width="0.7" stroke-linecap="round" stroke-linejoin="round"/>
<path d="M14.0527 342.229C11.3759 347.175 8.44864 351.982 5.28231 356.631C-2.07572 367.47 0.259942 382.193 10.6628 390.122C23.0161 399.537 40.8377 395.159 47.5127 381.095C50.3234 375.173 53.6064 368.6 57.3367 361.673C48.5358 358.886 38.9303 355.053 29.1105 350.27C23.814 347.69 18.7719 344.988 14.0527 342.229Z" fill="white" stroke="#1B1B1B" stroke-width="0.7" stroke-linecap="round" stroke-linejoin="round"/>
<path d="M26.7599 205.508C30.4257 230.536 32.1704 251.759 31.7307 270.479C31.4175 283.814 29.994 295.879 27.3633 307.14C34.6843 311.854 42.2835 316.122 50.1193 319.919C58.5237 324.038 67.19 327.6 76.0621 330.582C82.688 320.792 90.0529 311.127 98.0992 302.282C114.217 284.565 133.069 270.148 154.216 264.677L26.7599 205.508Z" fill="white"/>
<path fill-rule="evenodd" clip-rule="evenodd" d="M26.7599 205.508C30.4257 230.536 32.1704 251.759 31.7307 270.479C31.4175 283.814 29.994 295.879 27.3633 307.14C34.6843 311.854 42.2835 316.122 50.1193 319.919C58.5237 324.038 67.19 327.6 76.0621 330.582C82.688 320.792 90.0529 311.127 98.0992 302.282C114.217 284.565 133.069 270.148 154.216 264.677L26.7599 205.508Z" stroke="#1B1B1B" stroke-width="0.7" stroke-linecap="round" stroke-linejoin="round"/>
<ellipse cx="88.0121" cy="232.576" rx="26.8679" ry="76.0448" transform="rotate(-63.9987 88.0121 232.576)" fill="#1B1B1B" stroke="#1B1B1B" stroke-width="0.7" stroke-linecap="round" stroke-linejoin="round"/>
<ellipse cx="88.0142" cy="232.575" rx="19.9121" ry="67.7832" transform="rotate(-64.0098 88.0142 232.575)" fill="white"/>
<mask id="mask12_801_465" style="mask-type:luminance" maskUnits="userSpaceOnUse" x="26" y="197" width="124" height="71">
<ellipse cx="88.014" cy="232.577" rx="19.9121" ry="67.7832" transform="rotate(-64.0098 88.014 232.577)" fill="white"/>
</mask>
<g mask="url(#mask12_801_465)">
<path d="M108.896 269.568L101.093 285.755C93.4071 301.698 74.3188 308.36 58.4577 300.634C42.5967 292.909 35.9692 273.723 43.6549 257.78L47.441 249.927L51.4585 241.593C59.1442 225.65 78.2325 218.989 94.0936 226.714C109.954 234.439 116.582 253.625 108.896 269.568Z" fill="white"/>
<mask id="mask13_801_465" style="mask-type:luminance" maskUnits="userSpaceOnUse" x="40" y="223" width="73" height="81">
<path fill-rule="evenodd" clip-rule="evenodd" d="M108.897 269.568L101.093 285.755C93.4074 301.698 74.3191 308.36 58.458 300.634C42.597 292.909 35.9695 273.723 43.6552 257.78L47.4413 249.927L51.4589 241.593C59.1445 225.65 78.2328 218.989 94.0939 226.714C109.955 234.439 116.582 253.625 108.897 269.568Z" fill="white"/>
</mask>
<g mask="url(#mask13_801_465)">
<path d="M61.2126 221.791C64.4416 256.567 126.532 273.043 126.532 273.043L47.4406 249.927L43.6851 224.595L58.1346 216.345" fill="white"/>
</g>
<path fill-rule="evenodd" clip-rule="evenodd" d="M108.896 269.568L101.093 285.755C93.4071 301.698 74.3188 308.36 58.4577 300.634V300.634C42.5967 292.909 35.9692 273.723 43.6549 257.78L47.441 249.927L51.4585 241.593C59.1442 225.65 78.2325 218.989 94.0936 226.714V226.714C109.954 234.439 116.582 253.625 108.896 269.568Z" stroke="#1B1B1B" stroke-width="0.7" stroke-linecap="round" stroke-linejoin="round"/>
</g>
<ellipse cx="88.0142" cy="232.575" rx="19.9121" ry="67.7832" transform="rotate(-64.0098 88.0142 232.575)" stroke="#1B1B1B" stroke-width="0.7" stroke-linecap="round" stroke-linejoin="round"/>
<path d="M53.694 284.222C56.6788 288.154 58.7802 292.684 59.855 297.502" stroke="#1B1B1B" stroke-width="0.7" stroke-linecap="round" stroke-linejoin="round"/>
<path d="M165.289 78.1689H53.3488C50.1853 78.1772 47.6275 80.7483 47.6356 83.9117V135.411C47.6274 138.574 50.1853 141.145 53.3488 141.154H126.525C129.474 144.896 132.839 149.16 135.284 152.257C136.414 153.688 138.692 152.866 138.692 151.039V141.154H165.289C168.452 141.145 171.01 138.574 171.002 135.411V83.9118C171.01 80.7483 168.452 78.1772 165.289 78.1689Z" fill="white"/>
<mask id="mask14_801_465" style="mask-type:luminance" maskUnits="userSpaceOnUse" x="47" y="78" width="125" height="75">
<path fill-rule="evenodd" clip-rule="evenodd" d="M165.288 78.1689H53.3479C50.1845 78.1772 47.6266 80.7483 47.6347 83.9117V135.411C47.6266 138.574 50.1844 141.145 53.3479 141.154H126.524C129.473 144.896 132.838 149.16 135.283 152.257C136.413 153.688 138.691 152.866 138.691 151.039V141.154H165.288C168.451 141.145 171.009 138.574 171.001 135.411V83.9118C171.009 80.7483 168.451 78.1772 165.288 78.1689Z" fill="white"/>
</mask>
<g mask="url(#mask14_801_465)">
<path d="M171 69.2722C171.436 161.281 31.4365 135.422 31.4365 135.422C31.4365 135.422 53.5731 164.602 56.5645 167.151C59.5559 169.7 193.572 172.105 193.572 172.105L180.41 65.6641" fill="#1B1B1B"/>
<path d="M171 69.2722C171.436 161.281 31.4365 135.422 31.4365 135.422C31.4365 135.422 53.5731 164.602 56.5645 167.151C59.5559 169.7 193.572 172.105 193.572 172.105L180.41 65.6641" stroke="#1B1B1B" stroke-width="0.7" stroke-linecap="round" stroke-linejoin="round"/>
</g>
<path fill-rule="evenodd" clip-rule="evenodd" d="M165.289 78.1689H53.3488C50.1853 78.1772 47.6275 80.7483 47.6356 83.9117V135.411C47.6274 138.574 50.1853 141.145 53.3488 141.154H126.525C129.474 144.896 132.839 149.16 135.284 152.257C136.414 153.688 138.692 152.866 138.692 151.039V141.154H165.289C168.452 141.145 171.01 138.574 171.002 135.411V83.9118C171.01 80.7483 168.452 78.1772 165.289 78.1689Z" stroke="#1B1B1B" stroke-width="0.7" stroke-linecap="round" stroke-linejoin="round"/>
<ellipse cx="72.5432" cy="107.939" rx="5.70667" ry="5.73601" fill="white" stroke="#1B1B1B" stroke-width="0.7" stroke-linecap="round" stroke-linejoin="round"/>
<ellipse cx="96.4011" cy="107.939" rx="5.70667" ry="5.73601" fill="white" stroke="#1B1B1B" stroke-width="0.7" stroke-linecap="round" stroke-linejoin="round"/>
<ellipse cx="120.255" cy="107.939" rx="5.70667" ry="5.73601" fill="white" stroke="#1B1B1B" stroke-width="0.7" stroke-linecap="round" stroke-linejoin="round"/>
<ellipse cx="144.111" cy="107.939" rx="5.70667" ry="5.73601" fill="white" stroke="#1B1B1B" stroke-width="0.7" stroke-linecap="round" stroke-linejoin="round"/>
<path d="M149.173 124.042C146.264 126.645 143.062 128.9 139.631 130.761" stroke="#1B1B1B" stroke-width="0.7" stroke-linecap="round" stroke-linejoin="round"/>
<path d="M79.9597 85.5049L78.3002 88.0084" stroke="#1B1B1B" stroke-width="0.7" stroke-linecap="round" stroke-linejoin="round"/>
<path d="M158.375 126.06L151.853 132.137" stroke="white" stroke-width="0.7" stroke-linecap="round" stroke-linejoin="round"/>
<path d="M410.491 350.598C406.595 352.676 401.936 352.749 397.975 350.796L336.351 320.422V386.887C336.347 388.594 337.02 390.232 338.224 391.442C339.428 392.652 341.063 393.335 342.77 393.339H460.184C461.891 393.335 463.526 392.652 464.73 391.442C465.933 390.232 466.607 388.594 466.603 386.887V320.701L410.491 350.598Z" fill="white" stroke="#1B1B1B" stroke-width="0.7" stroke-linecap="round" stroke-linejoin="round"/>
<path d="M410.491 350.599L466.603 320.701V313.535C466.612 309.981 463.738 307.092 460.184 307.083H342.77C339.216 307.092 336.342 309.981 336.351 313.535V320.423L397.975 350.797C401.936 352.75 406.595 352.676 410.491 350.599Z" fill="white" stroke="#1B1B1B" stroke-width="0.7" stroke-linecap="round" stroke-linejoin="round"/>
<ellipse cx="466.604" cy="314.111" rx="23.3968" ry="23.5171" fill="white"/>
<mask id="mask15_801_465" style="mask-type:luminance" maskUnits="userSpaceOnUse" x="443" y="290" width="47" height="48">
<ellipse cx="466.603" cy="314.11" rx="23.3968" ry="23.5171" fill="white"/>
</mask>
<g mask="url(#mask15_801_465)">
<path d="M453.339 282.974C500.358 288.672 487.019 330.963 473.68 338.978C460.342 346.993 501.024 337.627 501.024 337.627L493.688 290.592L470.148 282.974" fill="white"/>
</g>
<ellipse cx="466.604" cy="314.111" rx="23.3968" ry="23.5171" stroke="#1B1B1B" stroke-width="0.7" stroke-linecap="round" stroke-linejoin="round"/>
<path d="M470.128 323.318H466.835V308.746L463.057 310.945L463.079 307.635L467.72 304.903H470.151L470.128 323.318Z" fill="white" stroke="#1B1B1B" stroke-width="0.7" stroke-linecap="round" stroke-linejoin="round"/>
<path d="M354.711 314.88L351.6 317.562" stroke="#1B1B1B" stroke-width="0.7" stroke-linecap="round" stroke-linejoin="round"/>
<path d="M438.312 374.828L429.873 377.094" stroke="#1B1B1B" stroke-width="0.7" stroke-linecap="round" stroke-linejoin="round"/>
<defs>
<linearGradient id="paint0_linear_801_465" x1="65.032" y1="304.057" x2="109.118" y2="304.648" gradientUnits="userSpaceOnUse">
<stop stop-color="#FFFEFF"/>
<stop offset="1" stop-color="#C5EFFE"/>
</linearGradient>
</defs>
</svg>
